<?xml version="1.0" encoding="UTF-8" standalone="no"?>
<svg
   xmlns:dc="http://purl.org/dc/elements/1.1/"
   xmlns:cc="http://creativecommons.org/ns#"
   xmlns:rdf="http://www.w3.org/1999/02/22-rdf-syntax-ns#"
   xmlns:svg="http://www.w3.org/2000/svg"
   xmlns="http://www.w3.org/2000/svg"
   xmlns:sodipodi="http://sodipodi.sourceforge.net/DTD/sodipodi-0.dtd"
   xmlns:inkscape="http://www.inkscape.org/namespaces/inkscape"
   width="1280"
   height="960"
   viewBox="0 0 338.66668 253.99999"
   version="1.1"
   id="svg8"
   inkscape:version="1.0.2-2 (e86c870879, 2021-01-15)"
   sodipodi:docname="events-logo.svg"
   inkscape:export-filename="C:\Users\chalmers\projects\gatsby-starter-netlify-cms\static\img\events-logo.png"
   inkscape:export-xdpi="96"
   inkscape:export-ydpi="96">
  <defs
     id="defs2" />
  <sodipodi:namedview
     id="base"
     pagecolor="#8c8c8c"
     bordercolor="#666666"
     borderopacity="1.0"
     inkscape:pageopacity="0"
     inkscape:pageshadow="2"
     inkscape:zoom="0.24748737"
     inkscape:cx="1005.0544"
     inkscape:cy="560.07073"
     inkscape:document-units="mm"
     inkscape:current-layer="layer1"
     inkscape:document-rotation="0"
     showgrid="false"
     inkscape:window-width="1460"
     inkscape:window-height="1041"
     inkscape:window-x="2408"
     inkscape:window-y="220"
     inkscape:window-maximized="0"
     units="px"
     inkscape:snap-global="false" />
  <metadata
     id="metadata5">
    <rdf:RDF>
      <cc:Work
         rdf:about="">
        <dc:format>image/svg+xml</dc:format>
        <dc:type
           rdf:resource="http://purl.org/dc/dcmitype/StillImage" />
        <dc:title></dc:title>
      </cc:Work>
    </rdf:RDF>
  </metadata>
  <g
     inkscape:groupmode="layer"
     id="layer2"
     inkscape:label="background">
    <rect
       style="fill:#6d6d6d;fill-opacity:1;stroke:#ffffff;stroke-width:0"
       id="rect833"
       width="338.66666"
       height="254"
       x="5e-07"
       y="5e-07"
       rx="0"
       ry="0" />
  </g>
  <g
     inkscape:label="graphics"
     inkscape:groupmode="layer"
     id="layer1">
    <path
       id="path1077"
       style="fill:#000000;stroke-width:4.67841"
       d="M 488.42578 98.533203 L 416.23633 100.03125 C 351.61253 101.37297 342.66136 102.56007 330.85352 111.33984 C 323.59867 116.73417 315.06316 126.20768 311.88477 132.39258 C 303.30633 149.08426 303.70147 887.50447 312.29688 902.99414 C 315.59565 908.93869 324.46781 917.87132 332.01367 922.8457 C 345.29992 931.60427 358.13234 931.88408 738 931.92188 C 1092.7652 931.94977 1131.5057 931.2211 1143.2207 924.30078 C 1172.9648 906.73029 1171.4789 928.11587 1171.4082 517.18945 C 1171.3551 230.02598 1170.0033 141.03709 1165.5605 132.39258 C 1162.3822 126.20786 1153.8445 116.73417 1146.5898 111.33984 C 1134.782 102.56007 1125.8329 101.37333 1061.209 100.03125 L 989.01758 98.533203 L 923.51953 99.191406 L 738.72266 99.191406 L 553.92383 99.191406 L 488.42578 98.533203 z M 395.71484 347.14258 L 912.85742 347.14258 L 912.85742 347.14844 L 1120.0137 347.14844 L 1120.0137 608.20508 C 1120.0137 805.01101 1118.6326 870.64257 1114.4004 874.875 C 1106.2702 883.00495 371.17484 883.00495 363.04492 874.875 C 358.81178 870.64257 357.42969 805.01101 357.42969 608.20508 L 357.42969 347.14844 L 395.71484 347.14844 L 395.71484 347.14258 z M 972.41992 412.64648 C 948.40235 412.64648 927.45766 414.73986 925.87695 417.29883 C 921.90165 423.72992 921.62977 499.3733 925.55859 505.73047 L 925.56055 505.73047 C 930.03169 512.96407 1008.8614 512.57212 1016.1543 505.2793 C 1022.0065 499.42689 1024.1468 433.64766 1018.9277 420.04688 C 1016.6189 414.02938 1007.9242 412.64648 972.41992 412.64648 z M 505.02539 567.03516 C 469.52138 567.03516 460.82649 568.41884 458.51758 574.43555 C 453.29847 588.0364 455.43872 653.81563 461.29102 659.66797 C 468.26829 666.64467 547.39856 667.37732 551.64648 660.50391 C 555.83122 653.73356 556.22332 579.21701 552.10938 572.56055 C 549.87874 568.95121 533.55202 567.03516 505.02539 567.03516 z M 661.5293 567.03516 C 636.47375 567.03516 619.17579 569.1523 615.67969 572.64844 C 608.13567 580.19256 608.13567 652.1238 615.67969 659.66797 C 619.17579 663.16411 636.47375 665.28125 661.5293 665.28125 C 686.58488 665.28125 703.88081 663.16411 707.37695 659.66797 C 714.92093 652.1238 714.92093 580.19256 707.37695 572.64844 C 703.88081 569.1523 686.58488 567.03516 661.5293 567.03516 z M 815.91602 567.03516 C 790.86047 567.03516 773.5645 569.1523 770.06836 572.64844 C 766.62593 576.09079 764.45312 592.92212 764.45312 616.1582 C 764.45312 639.3944 766.62593 656.22554 770.06836 659.66797 C 773.5645 663.16411 790.86047 665.28125 815.91602 665.28125 C 840.9716 665.28125 858.26949 663.16411 861.76562 659.66797 C 865.20802 656.22554 867.37891 639.3944 867.37891 616.1582 C 867.37891 592.92212 865.20802 576.09079 861.76562 572.64844 C 858.26949 569.1523 840.9716 567.03516 815.91602 567.03516 z M 972.41992 567.03516 C 943.5545 567.03516 927.57753 568.93369 925.28906 572.63672 C 920.4199 580.51446 919.88807 647.20171 924.61523 657.09375 C 927.90161 663.97071 935.08973 665.28125 969.5332 665.28125 C 995.18856 665.28125 1012.6417 663.18047 1016.1543 659.66797 C 1022.0066 653.81563 1024.1469 588.0364 1018.9277 574.43555 C 1016.6188 568.41812 1007.9239 567.03516 972.41992 567.03516 z M 505.02539 721.42383 C 469.52138 721.42383 460.82649 722.80552 458.51758 728.82227 C 453.29847 742.42312 455.43872 808.20434 461.29102 814.05664 C 467.85383 820.61832 547.28891 821.94584 551.23633 815.55859 C 555.35042 808.90122 556.27127 733.65669 552.31641 727.27148 C 549.83775 723.26953 534.90947 721.42383 505.02539 721.42383 z M 661.5293 721.42383 C 636.47375 721.42383 619.17579 723.54093 615.67969 727.03711 C 608.13567 734.58127 608.13567 806.51251 615.67969 814.05664 C 619.17579 817.55278 636.47375 819.66992 661.5293 819.66992 C 686.58488 819.66992 703.88081 817.55278 707.37695 814.05664 C 714.92093 806.51251 714.92093 734.58127 707.37695 727.03711 C 703.88081 723.54093 686.58488 721.42383 661.5293 721.42383 z M 815.91602 721.42383 C 790.86047 721.42383 773.5645 723.54093 770.06836 727.03711 C 766.62593 730.4795 764.45312 747.31079 764.45312 770.54688 C 764.45312 793.78311 766.62593 810.61425 770.06836 814.05664 C 773.5645 817.55278 790.86047 819.66992 815.91602 819.66992 C 840.9716 819.66992 858.26949 817.55278 861.76562 814.05664 C 865.20802 810.61425 867.37891 793.78311 867.37891 770.54688 C 867.37891 747.31079 865.20802 730.4795 861.76562 727.03711 C 858.26949 723.54093 840.9716 721.42383 815.91602 721.42383 z "
       transform="scale(0.26458333)" />
  </g>
  <g
     inkscape:groupmode="layer"
     id="layer3"
     inkscape:label="text">
    <text
       xml:space="preserve"
       style="font-style:normal;font-variant:normal;font-weight:bold;font-stretch:normal;font-size:66.9424px;line-height:1.25;font-family:'Segoe UI';-inkscape-font-specification:'Segoe UI, Bold';font-variant-ligatures:normal;font-variant-caps:normal;font-variant-numeric:normal;font-variant-east-asian:normal;fill:#ffffff;fill-opacity:1;stroke:none;stroke-width:1.67357"
       x="24.436668"
       y="140.82849"
       id="text837"><tspan
         sodipodi:role="line"
         id="tspan835"
         x="24.436668"
         y="140.82849"
         style="font-style:normal;font-variant:normal;font-weight:bold;font-stretch:normal;font-size:66.9424px;font-family:'Segoe UI';-inkscape-font-specification:'Segoe UI, Bold';font-variant-ligatures:normal;font-variant-caps:normal;font-variant-numeric:normal;font-variant-east-asian:normal;fill:#ffffff;fill-opacity:1;stroke-width:1.67357">Events</tspan></text>
  </g>
</svg>
