<?xml version="1.0" encoding="UTF-8" standalone="no"?>
<svg
   xmlns:dc="http://purl.org/dc/elements/1.1/"
   xmlns:cc="http://creativecommons.org/ns#"
   xmlns:rdf="http://www.w3.org/1999/02/22-rdf-syntax-ns#"
   xmlns:svg="http://www.w3.org/2000/svg"
   xmlns="http://www.w3.org/2000/svg"
   xmlns:sodipodi="http://sodipodi.sourceforge.net/DTD/sodipodi-0.dtd"
   xmlns:inkscape="http://www.inkscape.org/namespaces/inkscape"
   width="256"
   height="256"
   viewBox="0 0 67.733333 67.733333"
   version="1.1"
   id="svg5"
   sodipodi:docname="logo.svg"
   inkscape:version="1.0.2-2 (e86c870879, 2021-01-15)"
   inkscape:export-filename="C:\Users\chalmers\projects\gatsby-starter-netlify-cms\static\img\favicon-16x16.png"
   inkscape:export-xdpi="96"
   inkscape:export-ydpi="96">
  <metadata
     id="metadata8">
    <rdf:RDF>
      <cc:Work
         rdf:about="">
        <dc:format>image/svg+xml</dc:format>
        <dc:type
           rdf:resource="http://purl.org/dc/dcmitype/StillImage" />
        <dc:title></dc:title>
      </cc:Work>
    </rdf:RDF>
  </metadata>
  <sodipodi:namedview
     pagecolor="#ffffff"
     bordercolor="#666666"
     borderopacity="1"
     objecttolerance="10"
     gridtolerance="10"
     guidetolerance="10"
     inkscape:pageopacity="0"
     inkscape:pageshadow="2"
     inkscape:window-width="1511"
     inkscape:window-height="721"
     id="namedview6"
     showgrid="false"
     units="px"
     inkscape:zoom="1.1711661"
     inkscape:cx="-30.987992"
     inkscape:cy="191.08888"
     inkscape:window-x="10"
     inkscape:window-y="122"
     inkscape:window-maximized="0"
     inkscape:current-layer="layer2" />
  <defs
     id="defs2" />
  <g
     inkscape:groupmode="layer"
     id="layer3"
     inkscape:label="background" />
  <g
     inkscape:groupmode="layer"
     id="layer2"
     inkscape:label="logo">
    <g
       id="g876"
       transform="matrix(7.6876534,0,0,7.6876534,0.43419098,0.43419098)"
       style="stroke-width:0;stroke-miterlimit:4;stroke-dasharray:none">
      <g
         id="g868"
         style="stroke-width:0;stroke-miterlimit:4;stroke-dasharray:none">
        <circle
           style="fill:#ffffff;fill-opacity:1;stroke:#ffffff;stroke-width:0;stroke-miterlimit:4;stroke-dasharray:none"
           id="path863"
           cx="4.3488531"
           cy="4.3488531"
           r="4.4053316" />
      </g>
      <g
         id="layer1"
         transform="matrix(0.05484698,0,0,0.05484698,0.23532961,0.58270062)"
         style="stroke-width:0;stroke-miterlimit:4;stroke-dasharray:none">
        <path
           style="fill:#000000;stroke-width:0;stroke-miterlimit:4;stroke-dasharray:none"
           d="m 77.153543,137.27058 c -1.856696,0.0728 -4.255299,0.0836 -5.330229,0.024 -1.07493,-0.0596 -3.313626,-0.28823 -4.97488,-0.50806 -1.661255,-0.21983 -4.619532,-0.7912 -6.573948,-1.26969 -1.954418,-0.47849 -4.353021,-1.12443 -5.330229,-1.43542 -0.977209,-0.31099 -3.490526,-1.34322 -5.585146,-2.29384 -2.094619,-0.95062 -5.021526,-2.44561 -6.504239,-3.32221 -1.48271,-0.87661 -3.68665,-2.34839 -4.897639,-3.27064 -1.210988,-0.92223 -3.304137,-2.64395 -4.651438,-3.82604 -1.3473,-1.18208 -3.690213,-3.5496 -5.206475,-5.26114 -1.516257,-1.71154 -3.847382,-4.74977 -5.180274,-6.75162 -1.332893,-2.00186 -3.110316,-5.04246 -3.94983,-6.75692 -0.839515,-1.71444 -2.0737,-4.592764 -2.742635,-6.396272 C 15.557646,94.3992 14.769817,91.964174 14.47585,90.79152 14.181882,89.618867 13.662913,87.140315 13.322584,85.283623 12.878705,82.861993 12.6973,79.949211 12.68079,74.97851 c -0.01735,-5.222755 0.137955,-7.848209 0.630586,-10.660465 0.359481,-2.052136 0.888732,-4.610646 1.176113,-5.685573 0.287382,-1.074926 0.858383,-2.91386 1.268893,-4.086504 0.41051,-1.172653 1.539942,-3.89107 2.509849,-6.040933 0.969908,-2.149854 2.811777,-5.507898 4.093044,-7.462317 1.281268,-1.95442 3.265334,-4.706198 4.409038,-6.11507 1.143707,-1.408873 3.660093,-4.029613 5.591978,-5.823874 1.931881,-1.794261 4.775104,-4.159502 6.318268,-5.256086 1.543165,-1.096583 4.035421,-2.691522 5.538346,-3.544291 1.502926,-0.852769 4.176029,-2.172789 5.940231,-2.933382 1.764199,-0.760582 5.03864,-1.93789 7.27654,-2.616227 2.237897,-0.678338 5.711465,-1.509541 7.719038,-1.847123 2.492035,-0.419042 5.623153,-0.613781 9.868737,-0.613781 4.245584,0 7.376703,0.194739 9.868738,0.613781 2.007573,0.337582 5.48114,1.168785 7.719043,1.847123 2.2379,0.678337 5.512339,1.855645 7.276543,2.616227 1.764205,0.760593 4.437305,2.080613 5.940225,2.933382 1.50293,0.852769 3.99518,2.447708 5.53835,3.544291 1.54316,1.096584 4.38638,3.461825 6.31827,5.256086 1.93188,1.794261 4.44827,4.415001 5.59197,5.823874 1.14371,1.408872 3.12777,4.16065 4.40904,6.11507 1.28127,1.954419 3.12313,5.312463 4.09304,7.462317 0.96992,2.149863 2.10157,4.86828 2.51478,6.040933 0.41322,1.172644 0.92576,2.771712 1.13897,3.553478 0.21322,0.781766 0.70984,3.180369 1.10361,5.330232 0.39376,2.149854 0.80382,6.307432 0.91124,9.239061 0.14223,3.881572 0.0368,6.537446 -0.38819,9.772087 -0.32092,2.443025 -0.90346,5.801069 -1.29455,7.462327 -0.39108,1.661249 -1.26263,4.496047 -1.93675,6.299545 -0.67414,1.803508 -1.91257,4.681832 -2.75208,6.396272 -0.83952,1.71446 -2.61695,4.75506 -3.94984,6.75692 -1.33289,2.00185 -3.66402,5.04008 -5.18028,6.75162 -1.51626,1.71154 -3.85917,4.07906 -5.20647,5.26114 -1.3473,1.18209 -3.44044,2.90381 -4.65143,3.82604 -1.211,0.92225 -3.41493,2.39403 -4.89765,3.27064 -1.4827,0.8766 -4.40962,2.37159 -6.50423,3.32221 -2.094626,0.95062 -4.607939,1.98285 -5.585148,2.29384 -0.97721,0.31099 -3.375818,0.95528 -5.330235,1.43175 -1.954417,0.47647 -4.83274,1.03702 -6.396274,1.24567 -1.563534,0.20863 -4.361905,0.43892 -6.2186,0.51174 z m 0.355348,-2.82822 c 2.638463,-0.0921 5.8366,-0.32953 7.106972,-0.52779 1.270371,-0.19827 3.797791,-0.75486 5.616487,-1.23687 1.818699,-0.48202 5.242886,-1.66246 7.609296,-2.62319 2.366414,-0.96074 5.828884,-2.67025 7.694394,-3.79892 1.8655,-1.12868 4.75764,-3.10897 6.42698,-4.40067 1.66932,-1.2917 4.41859,-3.80398 6.10948,-5.58285 1.69087,-1.77887 3.78581,-4.16207 4.65539,-5.29601 0.86959,-1.13395 2.30458,-3.26102 3.18887,-4.72684 0.88428,-1.4658 2.18819,-3.82205 2.89756,-5.2361 0.70937,-1.41404 1.77384,-3.892592 2.36548,-5.507898 0.59165,-1.615306 1.4043,-4.216172 1.8059,-5.779704 0.40159,-1.563531 0.97022,-4.281948 1.26361,-6.040923 0.30653,-1.837736 0.53988,-5.541078 0.54859,-8.706045 0.008,-3.029346 -0.1777,-6.787163 -0.4134,-8.350694 -0.2357,-1.563532 -0.74345,-4.122041 -1.12835,-5.685583 -0.38489,-1.563532 -1.19106,-4.281948 -1.79151,-6.040924 -0.60043,-1.758975 -1.79369,-4.596232 -2.65168,-6.305024 -0.85799,-1.708792 -2.22068,-4.187344 -3.02819,-5.507908 -0.80752,-1.320553 -2.20139,-3.360451 -3.09751,-4.533095 -0.89611,-1.172653 -3.15265,-3.708922 -5.01453,-5.636165 -1.86189,-1.927233 -4.83538,-4.595084 -6.60774,-5.928551 -1.77236,-1.333467 -4.9705,-3.397117 -7.10698,-4.585877 -2.13646,-1.18877 -5.323639,-2.715949 -7.082614,-3.393722 -1.758976,-0.677783 -4.717258,-1.618489 -6.573956,-2.090454 -1.856697,-0.471964 -4.575113,-1.073284 -6.040926,-1.336277 -1.601737,-0.287369 -5.288116,-0.478159 -9.239063,-0.478159 -3.950946,0 -7.637326,0.19079 -9.239063,0.478159 -1.465812,0.262993 -4.184229,0.864313 -6.040925,1.336277 -1.856697,0.471965 -4.814974,1.412671 -6.573949,2.090454 -1.758976,0.677773 -4.946158,2.204952 -7.082627,3.393722 -2.136469,1.18876 -5.334606,3.25241 -7.106971,4.585877 -1.772366,1.333467 -4.745844,4.001318 -6.607732,5.928551 -1.861885,1.927243 -4.11843,4.463512 -5.014541,5.636165 -0.896111,1.172644 -2.28999,3.212542 -3.097508,4.533095 -0.807517,1.320564 -2.170203,3.799116 -3.028191,5.507908 -0.857988,1.708792 -2.051247,4.546049 -2.651686,6.305024 -0.600438,1.758976 -1.406617,4.477392 -1.791508,6.040924 -0.384891,1.563542 -0.892647,4.122051 -1.128345,5.685583 -0.235699,1.563531 -0.421726,5.321348 -0.413393,8.350694 0.0087,3.164967 0.242059,6.868309 0.548583,8.706045 0.29339,1.758975 0.862015,4.477392 1.263611,6.040923 0.401597,1.563532 1.214249,4.164398 1.805893,5.779704 0.591644,1.615306 1.656113,4.093858 2.365487,5.507898 0.709373,1.41405 2.013278,3.7703 2.897564,5.2361 0.884287,1.46582 2.319275,3.59289 3.188866,4.72684 0.869588,1.13394 2.963128,3.51402 4.65231,5.28906 1.68918,1.77504 4.351882,4.22294 5.917115,5.43979 1.565229,1.21684 4.205081,3.06426 5.866335,4.10537 1.661255,1.0411 4.539578,2.56419 6.396275,3.38462 1.856696,0.82043 4.828317,1.97782 6.603602,2.57198 1.775287,0.59416 4.493703,1.34838 6.040926,1.67605 1.547224,0.32766 4.412203,0.72422 6.366621,0.88124 1.954417,0.15703 5.712228,0.21021 8.350691,0.11819 z m 20.610223,-24.19402 c -0.684049,0.1019 -1.944075,0.0482 -2.800058,-0.11952 -0.855982,-0.16763 -1.933125,-0.55167 -2.393657,-0.85343 -0.460522,-0.30174 -1.068576,-0.90619 -1.35122,-1.34321 -0.282655,-0.43703 -0.622031,-1.23432 -0.754177,-1.77179 -0.223235,-0.90799 -0.162022,-0.97721 0.864313,-0.97721 0.810771,0 1.107578,0.1654 1.115868,0.62186 0.006,0.34202 0.206101,0.87558 0.444184,1.18568 0.238092,0.3101 0.816648,0.76829 1.285681,1.0182 0.469023,0.24992 1.62826,0.4544 2.576067,0.4544 0.976142,0 2.09685,-0.24477 2.584911,-0.56456 0.473894,-0.3105 0.966964,-0.89646 1.095714,-1.30212 0.13864,-0.43683 0.006,-1.08618 -0.32613,-1.59258 -0.41453,-0.63265 -1.480215,-1.13891 -4.097772,-1.94665 -2.595004,-0.80079 -3.731748,-1.33854 -4.266451,-2.0183 -0.431976,-0.54918 -0.728904,-1.453941 -0.728904,-2.221061 0,-0.71192 0.249576,-1.650712 0.554592,-2.086203 0.305032,-0.43548 1.064597,-1.055869 1.687917,-1.378634 0.676544,-0.350324 1.934505,-0.579552 3.121211,-0.568744 1.106394,0.01007 2.483698,0.274486 3.10596,0.596274 0.614927,0.31799 1.342767,0.934631 1.617407,1.370303 0.27466,0.435672 0.60675,1.151934 0.73799,1.591675 0.20794,0.696691 0.10959,0.799535 -0.76462,0.799535 -0.77312,0 -1.11156,-0.244711 -1.475473,-1.066839 -0.289061,-0.653034 -0.837116,-1.15842 -1.412952,-1.302946 -0.517393,-0.129859 -1.346199,-0.236108 -1.841795,-0.236108 -0.495595,0 -1.34362,0.111074 -1.884503,0.246826 -0.601985,0.151093 -1.120033,0.606145 -1.335643,1.173238 -0.260968,0.686395 -0.22112,1.126489 0.153792,1.698679 0.356379,0.543905 1.436211,1.027975 3.651759,1.637025 2.343505,0.64422 3.440275,1.15096 4.300635,1.98701 0.92008,0.8941 1.15488,1.40873 1.15488,2.53128 0,0.8908 -0.27292,1.75597 -0.74207,2.35239 -0.40814,0.51888 -1.16769,1.1587 -1.68791,1.42183 -0.520199,0.26314 -1.505498,0.56181 -2.189546,0.6637 z m -49.215783,-0.0902 h -0.888372 v -7.63999 -7.639995 h 0.888372 c 0.88179,0 0.888371,0.02367 0.888371,3.198137 v 3.198138 h 3.895001 3.894997 l 0.102674,-3.109305 c 0.10233,-3.09894 0.105927,-3.109677 1.07988,-3.221738 l 0.977209,-0.112443 v 7.663606 7.66359 h -1.066046 -1.066046 v -3.55349 -3.55349 h -3.908834 -3.908835 v 3.55349 3.55349 z m 13.966233,0 c -0.874065,0 -1.028432,-0.11484 -0.835879,-0.62186 0.129891,-0.34202 1.461424,-3.78002 2.95897,-7.63999 2.620617,-6.754749 2.759409,-7.018135 3.698183,-7.018135 0.606036,0 1.116942,0.264504 1.349227,0.698534 0.205615,0.384199 1.398154,3.222544 2.65009,6.307431 1.251935,3.0849 2.530639,6.20856 2.841563,6.94146 l 0.565317,1.33256 -1.159652,-0.001 c -1.0335,-0.001 -1.224293,-0.16547 -1.753887,-1.51023 -0.326828,-0.8299 -0.697393,-1.86869 -0.823478,-2.30843 -0.216343,-0.75453 -0.4131,-0.79954 -3.495453,-0.79954 h -3.266208 l -0.828371,2.30977 c -0.770833,2.14933 -0.902838,2.30976 -1.900422,2.30976 z m 5.880962,-6.39627 h 2.631036 L 70.124915,100.386 c -0.691157,-1.85669 -1.35332,-3.37581 -1.47147,-3.37581 -0.11815,0 -0.51716,1.079369 -0.886691,2.398603 -0.36953,1.319237 -0.891338,2.838347 -1.15957,3.375817 l -0.487698,0.97721 z m 14.325494,6.39627 c -0.456033,0 -0.935754,-0.1066 -1.066046,-0.2369 -0.130295,-0.1303 -0.2369,-3.16853 -0.2369,-6.75162 v -6.514731 h -2.48744 c -2.416371,0 -2.48744,-0.02538 -2.48744,-0.888367 v -0.888367 h 6.040926 6.040926 v 0.888367 c 0,0.862994 -0.07106,0.888367 -2.48744,0.888367 h -2.487441 v 6.751621 6.75163 z M 48.411642,89.903194 c -0.371798,0 -0.773057,-0.25294 -0.891687,-0.562087 C 47.401323,89.031961 47.304262,81.36183 47.304262,72.296385 V 55.81377 l -3.819997,-0.100859 c -3.092424,-0.08169 -3.819997,-0.201156 -3.819997,-0.62742 0,-0.289605 2.398603,-2.42039 5.330228,-4.735076 2.931626,-2.314686 7.000709,-5.515734 9.042403,-7.113443 2.041694,-1.597699 4.537464,-3.544543 5.54615,-4.326309 1.008688,-0.781766 4.272319,-3.340275 7.252515,-5.685573 2.980197,-2.345297 6.001215,-4.697383 6.713376,-5.226844 0.712161,-0.52946 1.5864,-0.969202 1.942751,-0.97721 0.423178,-0.0091 0.607426,0.195706 0.531182,0.59161 -0.0642,0.333392 -1.414,1.652627 -2.999539,2.93163 -1.585541,1.279003 -7.798349,6.163228 -13.806242,10.853833 -6.007893,4.690594 -12.139123,9.4878 -13.624959,10.660454 l -2.701524,2.132095 3.006359,0.177675 3.006363,0.177676 0.09216,17.678587 c 0.08951,17.171489 0.07276,17.678598 -0.583846,17.678598 z m 11.152146,0 c -6.309569,0 -6.573949,-0.0282 -6.573949,-0.701898 0,-0.66616 0.293994,-0.706864 5.774415,-0.799535 l 5.774414,-0.09761 0.195897,-9.949762 c 0.125896,-6.39421 0.351536,-10.416721 0.631433,-11.256497 0.239541,-0.718699 0.950923,-2.073249 1.580843,-3.010106 0.633238,-0.941784 1.906068,-2.171551 2.846821,-2.750489 1.393979,-0.857866 2.196804,-1.075541 4.441857,-1.204353 1.54647,-0.08874 3.437011,0.02851 4.339418,0.269076 1.153121,0.307435 2.106457,0.947082 3.418446,2.293634 1.190304,1.221668 2.100188,2.592899 2.631523,3.965811 0.732292,1.892179 0.844916,3.0244 1.145441,11.515248 0.18331,5.17921 0.393293,9.616623 0.466623,9.86092 0.100852,0.335981 1.853868,0.444194 7.195981,0.444194 h 7.062649 l 0.23314,-5.386731 c 0.12824,-2.962704 0.23316,-10.305345 0.23316,-16.316977 0,-6.011632 0.0971,-11.183186 0.21569,-11.492332 0.17158,-0.447105 0.80759,-0.565038 3.1093,-0.576521 l 2.89361,-0.0144 -1.24372,-1.092513 c -0.68405,-0.600888 -2.45228,-2.073532 -3.92941,-3.272536 -1.47712,-1.199014 -4.19554,-3.406676 -6.04092,-4.905932 -1.845381,-1.499267 -5.35408,-4.358653 -7.797101,-6.354221 -2.443022,-1.995557 -5.449018,-4.427461 -6.679992,-5.404227 -1.385935,-1.099716 -2.195902,-1.995215 -2.127224,-2.351835 0.061,-0.316741 0.374001,-0.575896 0.695559,-0.575896 0.32156,0 3.817109,2.638458 7.767889,5.863248 3.95078,3.22479 7.688889,6.263021 8.3069,6.751626 0.618021,0.488604 4.124159,3.343075 7.791419,6.343261 3.66726,3.000195 6.60663,5.638653 6.53193,5.863248 -0.0747,0.224605 -0.60235,0.509375 -1.17255,0.632838 -0.5702,0.123453 -2.24994,0.243381 -3.73273,0.266508 l -2.696,0.042 -0.23321,16.414694 c -0.12827,9.028074 -0.36514,16.546618 -0.52637,16.707854 -0.16124,0.161237 -4.199978,0.250271 -8.974963,0.197852 l -8.681818,-0.09529 -0.251186,-9.239071 C 84.048851,75.404992 83.752466,70.367921 83.528368,69.292994 83.304271,68.218067 82.715899,66.585658 82.220877,65.66543 81.725856,64.745193 80.736434,63.587286 80.022158,63.092295 79.307886,62.597293 77.979859,62.053388 77.070992,61.88359 c -0.908869,-0.169798 -2.446003,-0.183276 -3.415857,-0.02992 -0.969852,0.153309 -2.218515,0.515489 -2.774802,0.804832 -0.556292,0.289344 -1.363416,0.903064 -1.793611,1.363807 -0.4302,0.460753 -1.100028,1.556279 -1.48851,2.434513 -0.388485,0.878223 -0.874808,2.635204 -1.080722,3.904406 -0.205909,1.269192 -0.375592,6.185359 -0.377071,10.924827 l -0.0027,8.617202 z M 75.732149,53.432926 c -0.684047,0.105191 -1.403628,0.132821 -1.599069,0.06134 -0.195442,-0.07142 -0.782769,-0.223769 -1.30517,-0.338529 -0.522403,-0.114761 -1.448877,-0.628578 -2.058837,-1.141831 -0.609956,-0.513243 -1.421817,-1.546317 -1.804129,-2.295709 -0.390387,-0.765216 -0.695116,-2.075958 -0.695116,-2.989921 0,-0.923601 0.305927,-2.227051 0.707418,-3.014035 0.389078,-0.762657 1.231794,-1.786615 1.872704,-2.275452 0.640907,-0.488847 1.842034,-1.04087 2.669172,-1.226715 0.827138,-0.185844 2.041851,-0.216566 2.699367,-0.06829 0.657512,0.148293 1.699128,0.567143 2.314701,0.930764 0.615571,0.363631 1.550329,1.304759 2.077237,2.09139 0.772485,1.153254 0.960628,1.848765 0.971495,3.591393 0.01119,1.79421 -0.153273,2.401997 -0.968613,3.579637 -0.540152,0.780154 -1.579546,1.752861 -2.309766,2.161548 -0.73022,0.408686 -1.887348,0.829138 -2.571394,0.934339 z m -0.215082,-1.739555 c 0.761192,-0.105967 1.820848,-0.503755 2.354792,-0.883955 0.533943,-0.380201 1.248449,-1.276364 1.587793,-1.991468 0.401451,-0.846 0.55348,-1.773641 0.435202,-2.655481 -0.09998,-0.745393 -0.519835,-1.830019 -0.933014,-2.410277 -0.413178,-0.580258 -1.444897,-1.31993 -2.292705,-1.643702 -1.236936,-0.472398 -1.818574,-0.514079 -2.944063,-0.211017 -0.771423,0.207723 -1.874687,0.870448 -2.451706,1.472715 -0.936951,0.977975 -1.049121,1.336449 -1.049121,3.352857 0,1.914802 0.134959,2.403991 0.888372,3.220106 0.488604,0.529269 1.368092,1.182938 1.954417,1.452599 0.636397,0.292697 1.623833,0.412645 2.450033,0.297623 z M 4.1391842,98.076212 c -0.2529489,0 -0.5439009,-0.321194 -0.6465586,-0.713764 -0.1565536,-0.598661 0.065967,-0.777364 1.3799494,-1.108227 0.8616306,-0.21696 1.5657093,-0.575373 1.5646194,-0.796472 -0.00111,-0.2211 -0.1659868,-0.992501 -0.366437,-1.714232 L 5.7063027,92.431293 4.1301046,92.905665 c -1.4842913,0.446702 -1.5894622,0.43257 -1.803681,-0.242373 -0.1273755,-0.401324 -0.045157,-0.829421 0.1868307,-0.972798 0.2278726,-0.140839 2.019737,-0.704426 3.9819216,-1.252441 2.9830683,-0.833117 3.6191931,-0.914899 3.8824531,-0.499101 0.173166,0.273489 0.317296,0.683092 0.320288,0.910215 0.003,0.227124 -0.597479,0.514815 -1.3343837,0.639316 -0.7369042,0.1245 -1.5382526,0.348994 -1.7807742,0.498879 -0.3482927,0.215257 -0.3374614,0.566266 0.051543,1.670455 0.2708727,0.768862 0.7124302,1.377556 0.9812399,1.352656 0.2688097,-0.02488 1.0660666,-0.158436 1.771681,-0.296747 1.040743,-0.204006 1.328043,-0.133929 1.521881,0.371195 0.131419,0.342478 0.113773,0.740699 -0.03921,0.884933 -0.152988,0.144233 -1.851504,0.677158 -3.7744799,1.184297 -1.922976,0.507129 -3.7032788,0.922061 -3.9562258,0.922061 z M 144.79237,97.720861 c -0.59978,0 -0.83329,-0.201618 -0.83329,-0.719495 0,-0.440487 0.34449,-0.850463 0.88837,-1.057249 0.67735,-0.257533 0.88837,-0.59307 0.88837,-1.412599 0,-0.639255 -0.18527,-1.074846 -0.45717,-1.074846 -0.25145,0 -1.06085,0.8086 -1.79867,1.796889 -1.22749,1.644175 -1.44989,1.787623 -2.61683,1.687912 -0.88895,-0.07595 -1.48822,-0.39536 -1.97802,-1.054257 -0.53862,-0.724552 -0.64688,-1.242812 -0.46366,-2.219528 0.13149,-0.70084 0.59172,-1.668632 1.02275,-2.150649 0.43104,-0.482017 1.22344,-0.979708 1.7609,-1.105971 0.86668,-0.203603 0.97721,-0.129094 0.97721,0.658796 0,0.649791 -0.23712,0.947888 -0.88296,1.10998 -0.54442,0.136649 -0.96784,0.55983 -1.10437,1.103776 -0.12177,0.48519 -0.12469,1.134195 -0.006,1.442244 0.11821,0.308048 0.43691,0.508287 0.70823,0.444979 0.27133,-0.06326 1.03817,-0.834679 1.70408,-1.714171 0.99073,-1.308457 1.44597,-1.618862 2.50499,-1.707967 1.03435,-0.08703 1.37834,0.04825 1.71316,0.673896 0.23435,0.437887 0.34139,1.47078 0.24294,2.344249 -0.0968,0.858803 -0.45956,1.874784 -0.80612,2.257734 -0.34659,0.382951 -1.00513,0.696277 -1.46344,0.696277 z m 2.44204,-8.4538 c -0.33562,0.0833 -1.00998,0.05379 -1.49859,-0.06547 -0.4886,-0.119263 -1.09631,-0.648431 -1.35047,-1.175928 l -0.46209,-0.959088 -1.74702,0.885274 c -0.96086,0.486913 -1.83229,0.885285 -1.93651,0.885285 -0.10422,0 -0.18948,-0.401777 -0.18948,-0.892849 0,-0.737455 0.33061,-1.039068 1.89958,-1.732937 1.04478,-0.462053 2.00474,-1.11409 2.13325,-1.448983 0.12851,-0.334893 0.14374,-0.754368 0.0339,-0.932174 -0.1099,-0.177806 -0.55016,-0.325465 -0.97837,-0.328134 -0.42821,-0.003 -1.14284,-0.102441 -1.58806,-0.221724 -0.63019,-0.168842 -0.75815,-0.38422 -0.57772,-0.972355 0.12748,-0.415516 0.26243,-0.792664 0.29987,-0.838103 0.0375,-0.04543 1.85467,0.20591 4.03828,0.558551 2.1836,0.352631 4.04428,0.715244 4.13483,0.805799 0.0906,0.09056 -0.0819,1.358317 -0.38327,2.817262 -0.30135,1.458945 -0.69865,2.835232 -0.88289,3.058417 -0.18423,0.223174 -0.60958,0.473898 -0.9452,0.55715 z m -0.7737,-1.851313 c 0.45543,0 0.75542,-0.325565 0.90044,-0.97721 0.1196,-0.537458 0.29334,-1.257044 0.38606,-1.599068 0.10542,-0.388843 -0.0292,-0.621859 -0.35931,-0.621859 -0.29035,0 -0.76493,-0.09096 -1.05463,-0.202123 -0.39183,-0.150357 -0.58871,0.164813 -0.76879,1.230684 -0.13314,0.788041 -0.13961,1.598575 -0.0144,1.801191 0.12522,0.202616 0.53501,0.368385 0.91062,0.368385 z M 9.9465009,88.267681 C 9.8741676,88.327111 7.8561198,87.907768 5.4619479,87.335709 1.5213865,86.394157 1.0880295,86.212412 0.8885775,85.417733 0.76739479,84.93491 0.72742765,84.492681 0.79976498,84.435024 0.87209828,84.377407 2.65808,83.345411 4.7686159,82.141803 c 2.1105359,-1.203608 3.9094876,-2.188372 3.9976716,-2.188372 0.088178,0 0.1603339,0.398412 0.1603339,0.885355 0,0.500521 -0.3089229,1.078291 -0.7106976,1.329196 -0.5014095,0.313136 -0.7106966,0.828686 -0.7106966,1.750696 0,0.71877 0.097062,1.559795 0.2156925,1.868941 0.1186312,0.309147 0.5953048,0.562087 1.0592754,0.562087 0.6075786,0 0.9071227,0.253161 1.0707031,0.904916 0.1249167,0.497711 0.1679398,0.953589 0.095612,1.013059 z M 5.2842926,85.614033 c 0.6225983,0.01944 0.7995344,-0.171621 0.7995344,-0.863396 0,-0.488605 -0.1678474,-0.888377 -0.3729945,-0.888377 -0.2051472,0 -0.8836942,0.264101 -1.5078809,0.586876 -1.0378031,0.536672 -1.0742911,0.610527 -0.4265389,0.863396 0.3895906,0.15209 1.0681366,0.287762 1.5078799,0.301501 z M 141.80031,79.953431 c -0.7111,0 -0.72849,-0.117147 -0.48799,-3.28698 0.13716,-1.807839 0.26908,-3.303741 0.29319,-3.324239 0.0241,-0.02055 1.92271,0.03959 4.21915,0.133556 L 150,73.646584 v 2.591337 c 0,1.425231 -0.0971,2.844277 -0.21569,3.153424 -0.11863,0.309146 -0.51839,0.562086 -0.88837,0.562086 -0.59175,0 -0.67267,-0.280882 -0.67267,-2.334489 0,-2.217684 -0.04,-2.328798 -0.79954,-2.220928 -0.70827,0.100628 -0.8117,0.346779 -0.9061,2.156814 -0.0914,1.752489 -0.20519,2.043252 -0.79954,2.043252 -0.61006,0 -0.69296,-0.255085 -0.69296,-2.132095 0,-2.111485 -0.0101,-2.132094 -1.02163,-2.132094 -0.85994,0 -1.05678,0.175751 -1.24372,1.110473 -0.12215,0.610749 -0.2221,1.650149 -0.2221,2.309761 0,0.976867 -0.13676,1.199306 -0.73737,1.199306 z M 4.2856337,78.887379 H 0 L 0.11028789,77.554828 0.22057578,76.222268 3.0633641,75.542369 C 5.4499823,74.971569 5.7635992,74.817666 5.0177815,74.58325 4.5291777,74.429679 3.2011227,74.042125 2.0665486,73.722009 L 0.00368667,73.139968 0.11213122,71.838332 0.22057578,70.536685 4.3959216,70.43656 8.5712676,70.336436 v 0.885285 c 0,0.863587 -0.07181,0.887803 -2.9316261,0.988481 l -2.9316252,0.103207 2.8427885,0.726365 c 2.5665832,0.655794 2.8532954,0.815459 2.9509277,1.643338 0.1021279,0.865996 -0.046013,0.957034 -2.665114,1.637699 l -2.7732544,0.720734 2.7539518,0.03455 c 2.6914394,0.03374 2.7539517,0.0547 2.7539517,0.922907 v 0.888367 z M 149.11583,71.425062 c -0.7841,0 -0.89256,-0.15197 -0.89256,-1.250487 0,-1.109285 -0.0903,-1.231681 -0.79954,-1.083841 -0.43975,0.09166 -2.03882,0.268261 -3.55349,0.392439 -2.74693,0.225209 -2.75395,0.223557 -2.75395,-0.644614 0,-0.766082 0.19758,-0.897462 1.64867,-1.096361 0.90677,-0.124279 2.17294,-0.225975 2.81372,-0.225975 0.64079,0 1.418,-0.0971 1.72715,-0.215691 0.35973,-0.138038 0.56209,-0.64976 0.56209,-1.421393 0,-0.9538 0.14313,-1.205703 0.68512,-1.205703 0.57237,0 0.72032,0.336273 0.899,2.043253 0.11762,1.12379 0.29092,2.64291 0.38511,3.375812 0.15828,1.23162 0.10364,1.332561 -0.72132,1.332561 z M 8.3047565,68.889125 C 7.9627331,68.862432 6.1348501,68.662576 4.2427948,68.444942 2.3507386,68.227317 0.69709319,67.941369 0.56802644,67.809515 0.4389597,67.677661 0.42803164,67.271502 0.54375082,66.906925 0.74376283,66.276736 0.95119854,66.265797 4.7515414,66.68509 c 2.1985738,0.242575 4.0373839,0.448857 4.0862443,0.458416 0.048864,0.01007 0.088833,0.417138 0.088833,0.905743 0,0.627641 -0.1825114,0.874144 -0.6218599,0.839876 z M 8.636158,65.345619 C 8.3073059,65.324466 6.479153,64.984044 4.573596,64.589177 1.3668647,63.9247 1.1089478,63.808529 1.1089478,63.028627 c 0,-0.483347 0.211064,-0.842626 0.4950131,-0.842626 0.2722567,0 1.7205807,0.253453 3.2184966,0.563225 1.4979158,0.309771 2.9541823,0.474704 3.2361472,0.366501 0.3095555,-0.118789 0.5126629,-0.682367 0.5126629,-1.422541 0,-0.674188 0.097062,-1.478749 0.2156924,-1.787885 0.1186313,-0.309157 0.5183984,-0.562087 0.8883721,-0.562087 0.3699729,0 0.6726789,0.130535 0.6726789,0.290079 0,0.159554 -0.168823,1.238923 -0.3751605,2.398603 -0.2063378,1.15969 -0.456974,2.388359 -0.5569695,2.730383 -0.099993,0.342015 -0.4508698,0.604524 -0.779723,0.58334 z m 132.850542,0.03848 c -0.37283,0 -0.75968,-0.279835 -0.85968,-0.621859 -0.10002,-0.342025 -0.3502,-1.568397 -0.55602,-2.725276 -0.20582,-1.15688 -0.29709,-2.180556 -0.20282,-2.274828 0.0943,-0.09428 1.65295,-0.458517 3.46371,-0.809436 1.81077,-0.350908 3.65209,-0.646477 4.09184,-0.656801 0.6006,-0.0141 0.79954,0.18259 0.79954,0.790539 0,0.746128 -0.25658,0.85014 -3.28698,1.33255 l -3.28697,0.523256 0.0121,1.066042 c 0.007,0.586332 0.12261,1.585752 0.25763,2.220938 0.20941,0.985127 0.14586,1.154875 -0.43237,1.154875 z m -1.76942,-7.462317 c -0.40585,0 -0.83378,-0.865955 -1.48685,-3.008737 l -0.91699,-3.008747 3.76768,-1.255443 c 2.07222,-0.690495 3.94395,-1.255442 4.15942,-1.255442 0.21547,0 0.74961,1.205451 1.18699,2.678769 0.43738,1.473329 0.70045,2.925787 0.5846,3.227691 -0.11585,0.301905 -0.40044,0.485654 -0.63243,0.408325 -0.23198,-0.07736 -0.72494,-1.050077 -1.09547,-2.161649 -0.37052,-1.111572 -0.86024,-2.018594 -1.08825,-2.015602 -0.22802,0.003 -0.61484,0.132599 -0.85961,0.288003 -0.35195,0.223477 -0.32739,0.678711 0.1175,2.176809 0.4641,1.562776 0.47979,1.946693 0.0897,2.193992 -0.26006,0.164863 -0.56357,0.302207 -0.67446,0.305198 -0.11089,0.003 -0.48332,-0.888216 -0.82762,-1.980457 -0.59225,-1.878833 -0.67712,-1.973055 -1.57439,-1.747855 -0.52162,0.130917 -1.00641,0.296041 -1.0773,0.366934 -0.0709,0.07091 0.19404,1.085211 0.58876,2.254027 0.39471,1.168816 0.62562,2.21716 0.51313,2.329654 -0.11249,0.112494 -0.46096,0.20453 -0.77439,0.20453 z M 3.0932201,57.56647 c -0.2865148,0 -0.5949542,-0.119937 -0.6854227,-0.266518 -0.090465,-0.14658 0.1952666,-1.625721 0.6349657,-3.28697 0.649245,-2.452956 0.9265824,-3.020462 1.4760738,-3.020462 0.3803557,0 0.6610383,0.233389 0.6410346,0.533017 -0.019572,0.293171 -0.1460708,0.879563 -0.2811087,1.303107 -0.2211298,0.693568 -0.041077,0.826268 1.8123285,1.335693 1.1318182,0.311091 2.6575009,0.730535 3.3904077,0.932094 0.943957,0.259598 1.332557,0.563456 1.332557,1.041928 0,0.371507 -0.129036,0.755213 -0.286748,0.852688 -0.157712,0.09751 -1.628638,-0.21291 -3.2687244,-0.689729 -1.6400864,-0.47682 -3.1700833,-0.866942 -3.3999926,-0.866942 -0.2299103,0 -0.5139623,0.47972 -0.6312266,1.066042 C 3.7068152,57.103169 3.387758,57.56647 3.0932201,57.56647 Z M 10.641857,51.168866 C 9.7557932,51.168151 8.6325127,50.879855 7.9908817,50.488615 7.3785064,50.115203 6.6189494,49.440593 6.3029754,48.989479 5.9870025,48.538366 5.7284792,47.629873 5.7284792,46.970604 c 0,-0.65926 0.2728106,-1.660493 0.6062469,-2.224957 0.3334353,-0.564454 1.1404648,-1.279799 1.7933985,-1.58963 0.7793151,-0.369816 1.5781825,-0.480688 2.3253794,-0.322766 0.626025,0.132328 1.639109,0.54457 2.2513,0.916098 0.61219,0.371528 1.302829,1.133611 1.534752,1.693532 0.258545,0.624176 0.322182,1.548392 0.164493,2.388943 -0.142966,0.762073 -0.694077,1.807819 -1.240907,2.354645 -0.772266,0.772267 -1.314224,0.983435 -2.521285,0.982397 z m -0.232344,-1.780853 c 0.65022,-0.003 1.358162,-0.12293 1.573206,-0.266519 0.215044,-0.143588 0.57557,-0.611715 0.801168,-1.040296 0.308372,-0.585818 0.309355,-1.000518 0.0039,-1.670777 -0.223421,-0.490358 -0.927927,-1.139121 -1.56557,-1.4417 -0.637644,-0.302579 -1.4701919,-0.55015 -1.8501074,-0.55015 -0.3799156,0 -0.9364861,0.279834 -1.2368229,0.621858 -0.3003369,0.342025 -0.6560765,0.982811 -0.7905342,1.423962 -0.1862666,0.611152 0.00876,1.055295 0.8190061,1.865587 0.75898,0.758981 1.4019657,1.061913 2.2456904,1.058035 z m 126.305747,0.71613 c -0.0939,0 -0.27594,-0.33186 -0.40468,-0.737475 -0.12873,-0.405614 -0.17949,-0.785724 -0.11278,-0.844691 0.0667,-0.05893 0.80215,-0.45058 1.63432,-0.870246 l 1.51305,-0.76303 -0.73025,-1.431375 c -0.61302,-1.201644 -0.85587,-1.392646 -1.51303,-1.19005 -0.43055,0.13273 -1.21217,0.459676 -1.73696,0.726536 -0.87329,0.444083 -0.97391,0.42294 -1.18733,-0.249475 -0.12824,-0.404073 -0.17859,-0.788746 -0.11189,-0.854844 0.0667,-0.06608 1.6288,-0.853575 3.47131,-1.74996 1.84251,-0.896395 3.5444,-1.629801 3.78198,-1.629801 0.23758,0 0.52901,0.25294 0.64764,0.562086 0.11864,0.309147 0.21569,0.625717 0.21569,0.70348 0,0.07776 -0.62784,0.46169 -1.39521,0.853172 l -1.39522,0.711789 0.56075,1.427528 c 0.30841,0.78514 0.69097,1.427528 0.85014,1.427528 0.15916,0 0.86394,-0.273983 1.56616,-0.608855 1.1093,-0.528987 1.31992,-0.540642 1.60569,-0.08884 0.1809,0.286009 0.33136,0.65107 0.33435,0.811249 0.003,0.160179 -1.66598,1.079641 -3.70884,2.043252 -2.04285,0.963612 -3.79106,1.752025 -3.88489,1.752025 z M 16.384856,43.258619 c -0.290919,0.05057 -1.968105,-0.80727 -3.72708,-1.906302 -1.758976,-1.099031 -3.2724349,-2.065694 -3.3632429,-2.148151 -0.090807,-0.0825 0.00574,-0.422083 0.2146419,-0.75473 0.2954595,-0.470574 1.081398,-0.644251 3.540918,-0.782491 l 3.161169,-0.177675 -2.210008,-1.376327 c -1.908641,-1.18864 -2.161335,-1.467265 -1.853077,-2.043252 0.196311,-0.366814 0.443786,-0.666925 0.549943,-0.666925 0.106158,0 1.777536,0.973724 3.714174,2.163824 3.119348,1.916908 3.479696,2.241315 3.157793,2.842797 -0.287827,0.53781 -0.785542,0.687695 -2.394119,0.720996 -1.116913,0.02317 -2.510472,0.147013 -3.096798,0.275301 l -1.066045,0.233258 2.052281,1.234521 c 1.246756,0.749956 2.012268,1.442285 1.950337,1.763861 -0.05607,0.291156 -0.339969,0.570739 -0.630887,0.621295 z M 133.79788,41.575784 c -0.46386,0 -1.33119,-0.439751 -1.92739,-0.97721 -0.69491,-0.626452 -1.15962,-1.453052 -1.29471,-2.30288 -0.14932,-0.939467 -0.032,-1.598464 0.40279,-2.261995 0.5589,-0.852981 0.66341,-0.886392 1.17444,-0.375345 0.46616,0.466152 0.48819,0.720664 0.13032,1.506086 -0.35418,0.777323 -0.33236,1.095153 0.12285,1.789869 0.30441,0.464601 0.85628,0.844731 1.22637,0.844731 0.3701,0 0.74035,-0.199886 0.8228,-0.444183 0.0825,-0.244308 -0.0579,-1.234965 -0.31188,-2.201477 -0.36597,-1.392706 -0.37195,-1.945626 -0.0288,-2.665111 0.34719,-0.727967 0.73028,-0.929414 1.93356,-1.016756 1.36555,-0.09912 1.56582,-0.003 2.22564,1.066042 0.39878,0.646236 0.81932,1.535932 0.93454,1.977094 0.12532,0.479882 -0.0399,1.182726 -0.41128,1.749517 -0.58852,0.898198 -0.6455,0.913539 -1.09756,0.295306 -0.26225,-0.358654 -0.38671,-1.011105 -0.27658,-1.449909 0.11014,-0.438795 0.0212,-1.132524 -0.19782,-1.541613 -0.21892,-0.40909 -0.65289,-0.743791 -0.96436,-0.743791 -0.48173,0 -0.52458,0.278595 -0.28693,1.865577 0.15365,1.026073 0.26896,2.259919 0.25626,2.741876 -0.0127,0.481967 -0.37539,1.161573 -0.80597,1.510236 -0.43059,0.348662 -1.16241,0.633936 -1.62628,0.633936 z M 22.794147,33.927703 c -0.651754,0.589828 -0.722372,0.519821 -2.017686,-2.00012 -0.738261,-1.43623 -1.649512,-3.294222 -2.025002,-4.12887 -0.639395,-1.421253 -0.644983,-1.559211 -0.08808,-2.174593 0.575548,-0.635971 0.71679,-0.612884 4.401484,0.719496 2.09377,0.757097 4.028503,1.459166 4.29941,1.560136 0.399632,0.148968 0.376258,0.312108 -0.123893,0.864767 -0.502853,0.55565 -0.78964,0.615311 -1.556365,0.323802 -0.836006,-0.317849 -1.068685,-0.216849 -2.104597,0.913529 -1.11811,1.220067 -1.14359,1.31166 -0.637278,2.290753 0.483372,0.934742 0.471018,1.070898 -0.147996,1.6311 z m -0.471925,-4.854913 0.826702,-0.776649 -1.111026,-0.467149 c -0.611063,-0.256939 -1.249987,-0.46715 -1.419828,-0.46715 -0.16984,0 -0.04189,0.559709 0.284324,1.243798 l 0.593126,1.243799 z M 125.0653,31.270671 c -0.11441,0 -0.40746,-0.240309 -0.65122,-0.534024 -0.36847,-0.443962 -0.20885,-0.788504 0.94656,-2.043252 1.02168,-1.109507 1.56151,-2.144514 2.03822,-3.907831 0.35665,-1.319234 0.73804,-2.398603 0.84752,-2.398603 0.10949,0 0.4795,0.253776 0.82224,0.56395 0.56615,0.512356 0.57683,0.69528 0.11681,1.999102 -0.27848,0.789321 -0.50634,1.631876 -0.50634,1.872346 0,0.335386 0.41947,0.354283 1.801,0.08109 1.50999,-0.29856 1.89415,-0.262953 2.37745,0.220344 0.31705,0.317043 0.49978,0.653125 0.40607,0.746833 -0.0937,0.09368 -1.36346,0.359339 -2.82164,0.59027 -2.22039,0.351654 -2.85581,0.614073 -3.90995,1.614823 -0.69229,0.657214 -1.35231,1.194935 -1.46672,1.194935 z m -94.392694,-5.74598 -2.065627,1.789486 -2.11135,-2.356115 c -1.161244,-1.295865 -2.412769,-2.736981 -2.781171,-3.202489 -0.617267,-0.779973 -0.624684,-0.89152 -0.09453,-1.421665 0.530148,-0.530146 0.768283,-0.36762 3.035074,2.071436 l 2.459788,2.646728 1.438909,-1.389211 c 1.211326,-1.16949 1.525099,-1.317683 1.983854,-0.936948 0.299723,0.248749 0.467489,0.577599 0.372817,0.730777 -0.09468,0.153188 -1.101662,1.08378 -2.237757,2.068001 z m 91.888634,-0.172498 c -1.47686,1.662991 -1.54932,1.698881 -2.13145,1.055637 -0.51602,-0.570205 -0.55486,-0.996237 -0.2703,-2.965232 0.18276,-1.264649 0.3355,-2.567304 0.33944,-2.894803 0.005,-0.38847 -0.57956,0.01884 -1.68076,1.171787 -1.47361,1.542852 -1.76522,1.708682 -2.29679,1.30614 -0.55163,-0.417712 -0.35482,-0.753572 2.09218,-3.57039 1.4856,-1.710112 2.92395,-3.109305 3.19633,-3.109305 0.27238,0 0.5955,0.26131 0.71806,0.580671 0.12255,0.31937 0.0359,1.783442 -0.19271,3.253488 -0.22855,1.470045 -0.35288,2.73547 -0.27628,2.812054 0.0765,0.07655 0.35817,-0.08058 0.62573,-0.349187 0.26758,-0.268643 1.01961,-1.096643 1.67121,-1.839991 1.07933,-1.231359 1.23459,-1.301657 1.74571,-0.790519 0.51114,0.511138 0.44665,0.696952 -0.72524,2.089577 -0.70746,0.840702 -1.97427,2.303243 -2.81513,3.250073 z M 34.373124,22.386961 c -0.07186,0 -1.002822,-1.159328 -2.068814,-2.576279 -1.065989,-1.416951 -2.140368,-2.954726 -2.387509,-3.417272 -0.376361,-0.704386 -0.358508,-0.931832 0.109905,-1.40024 0.307591,-0.307586 0.619885,-0.488817 0.693993,-0.402734 0.07411,0.08612 1.044842,1.39742 2.157185,2.914052 l 2.022442,2.75753 1.647741,-1.258143 c 1.467913,-1.120828 1.706167,-1.199709 2.183145,-0.722728 0.294469,0.29447 0.46497,0.589897 0.378883,0.656509 -0.08609,0.06658 -1.15773,0.869954 -2.381422,1.785206 -1.223693,0.915251 -2.28369,1.664099 -2.355549,1.664099 z M 114.2032,21.320908 c -0.25908,0 -0.56149,-0.235655 -0.67201,-0.523688 -0.11778,-0.306921 0.78585,-1.91578 2.18314,-3.886931 2.144,-3.024551 2.45207,-3.320784 3.0591,-2.941692 0.37126,0.231858 0.58816,0.647897 0.48201,0.924539 -0.10616,0.276641 -1.18035,1.836053 -2.38709,3.465381 -1.20674,1.629317 -2.40606,2.962391 -2.66515,2.962391 z m -4.13585,-2.842786 c -0.0472,0 -0.38425,-0.218158 -0.74888,-0.484787 -0.63107,-0.461449 -0.58044,-0.625606 1.05129,-3.408902 l 1.71429,-2.924115 -0.99886,-0.796462 c -0.58329,-0.465105 -0.89237,-0.9687791 -0.7429,-1.2106288 0.14078,-0.227798 0.44641,-0.4126453 0.67919,-0.4107919 0.23276,0.00201 1.42905,0.6414809 2.65842,1.4213937 1.22936,0.779912 2.38869,1.418018 2.57627,1.418018 0.18759,0 0.33862,0.119928 0.33563,0.266508 -0.003,0.146591 -0.15613,0.504873 -0.34033,0.796191 -0.29318,0.463734 -0.46617,0.45212 -1.38942,-0.09328 l -1.05456,-0.622937 -1.82711,3.024884 c -1.00492,1.663686 -1.86577,3.024894 -1.91303,3.024894 z M 40.392732,18.112678 c -0.205213,-0.005 -1.252603,-1.471667 -2.327533,-3.258041 -1.074929,-1.786363 -2.013884,-3.399383 -2.086564,-3.584482 -0.07269,-0.185099 0.08722,-0.47551 0.355349,-0.645359 0.268121,-0.169839 0.609412,-0.311252 0.75842,-0.314253 0.149009,-0.003 0.819807,0.852598 1.490659,1.901315 0.670855,1.048707 1.620148,2.623963 2.109545,3.500545 0.670116,1.200294 0.789002,1.69461 0.481525,2.002084 -0.224558,0.224565 -0.576187,0.403741 -0.781401,0.398191 z m 2.877084,-1.49968 c -0.844703,0.384875 -0.869545,0.351332 -1.071327,-1.446706 -0.113615,-1.012394 -0.310492,-3.151903 -0.437512,-4.754457 L 41.530036,7.4981058 42.445641,7.2683033 c 0.788658,-0.1979421 1.385814,0.1948798 4.307007,2.8331967 3.345877,3.021882 3.379514,3.068419 2.505974,3.466429 -0.720035,0.328063 -1.007082,0.293332 -1.536711,-0.185976 -0.358206,-0.324175 -0.878554,-0.577719 -1.156326,-0.563436 -0.277772,0.0143 -0.984763,0.310103 -1.571089,0.657366 -0.859268,0.508932 -1.046054,0.836199 -0.962984,1.687256 0.0808,0.827749 -0.08376,1.140975 -0.761696,1.449859 z m 1.195712,-4.429243 c 0.394746,-0.103237 0.820802,-0.354485 0.946798,-0.55835 0.125993,-0.203865 -0.236289,-0.771058 -0.805074,-1.260439 -0.913249,-0.7857643 -1.048215,-0.8172219 -1.154456,-0.269046 -0.06617,0.34141 -0.02687,0.993074 0.08735,1.448137 0.155212,0.618404 0.388939,0.779972 0.925377,0.639698 z m 58.378052,2.361484 c -0.15543,-0.01319 -0.6246,-0.189632 -1.04259,-0.392006 -0.51908,-0.251308 -0.83453,-0.835051 -0.99517,-1.841523 -0.12936,-0.810473 -0.47065,-1.833373 -0.75844,-2.273115 -0.287788,-0.4397411 -0.680771,-0.7995341 -0.873294,-0.7995341 -0.192513,0 -0.605954,0.6396275 -0.918757,1.4213931 -0.441534,1.103504 -0.75879,1.421393 -1.418522,1.421393 -0.467382,0 -0.850493,-0.119927 -0.85135,-0.266508 -7.15e-4,-0.14658 0.664951,-1.9455349 1.479585,-3.9976713 0.814633,-2.0521364 1.531358,-3.7942297 1.592712,-3.8712973 0.06134,-0.077057 0.874678,0.144163 1.807386,0.4916469 0.93271,0.3474839 2.21553,1.0183372 2.85071,1.4907852 0.69998,0.5206265 1.15489,1.1706492 1.15489,1.6502086 0,0.4351683 -0.24893,1.1466153 -0.55317,1.5809778 -0.31498,0.4496933 -0.92703,0.7897636 -1.4214,0.7897636 -0.47752,0 -0.86822,0.069501 -0.86822,0.1545485 0,0.08502 0.13753,0.524736 0.30561,0.977209 0.16809,0.452464 0.4152,1.42232 0.54913,2.155222 0.13392,0.732903 0.11634,1.321733 -0.0391,1.308507 z m -0.89332,-6.0394027 c 0.44589,0.01239 0.9116,-0.2404596 1.03495,-0.561885 0.13849,-0.360901 -0.0357,-0.7745133 -0.45534,-1.081474 -0.37378,-0.2733879 -1.05655,-0.5917209 -1.51727,-0.7074078 -0.52259,-0.1312194 -0.95494,-0.025182 -1.149439,0.2819397 -0.171481,0.2707588 -0.314223,0.6973249 -0.317215,0.9479178 -0.003,0.250603 0.354354,0.6002627 0.794094,0.7770114 0.43974,0.1767587 1.16434,0.3315083 1.61022,0.3438979 z M 51.893508,12.54808 C 51.51967,12.64579 51.12174,12.57689 51.009219,12.394801 50.896698,12.212734 50.257155,10.438085 49.588016,8.4511205 48.657319,5.6874867 48.475658,4.7722654 48.815037,4.5567664 c 0.244005,-0.154941 0.657865,-0.2841558 0.919692,-0.2871474 0.261832,-0.00302 1.461134,0.8733282 2.665115,1.9473785 1.203984,1.0740503 2.299322,1.9535431 2.434081,1.9544194 C 54.968683,8.1723033 54.66474,7.051122 54.158492,5.679922 53.652245,4.3087219 53.302127,3.1246254 53.380453,3.0485954 c 0.07833,-0.07605 0.450877,-0.1934193 0.827895,-0.2608673 0.576723,-0.1031563 0.870096,0.4129979 1.849021,3.2531956 0.639943,1.8566924 1.170983,3.7184918 1.180094,4.1373223 0.0091,0.41884 -0.24357,0.861341 -0.561504,0.983344 -0.317934,0.122002 -0.837631,0.02166 -1.154883,-0.222903 C 55.203825,10.694098 54.104745,9.7924243 53.078677,8.934981 51.912813,7.9607126 51.213096,7.5712349 51.213096,7.8965484 c 0,0.2863012 0.306027,1.410031 0.680056,2.4971656 0.66969,1.946492 0.669693,1.97933 3.56e-4,2.154366 z M 91.76375,10.646543 C 91.252642,10.638485 90.335284,10.415381 89.725171,10.14985 89.115063,9.884309 88.355505,9.2953179 88.037265,8.8409709 87.708802,8.3720182 87.459227,7.3193425 87.45998,6.4060452 c 7.11e-4,-0.9861947 0.278875,-2.0640728 0.718476,-2.7851092 0.394433,-0.6469504 1.251658,-1.3995955 1.904942,-1.6725603 0.883558,-0.3691708 1.51283,-0.4065411 2.456824,-0.1458854 0.69797,0.1927142 1.679068,0.8377004 2.180234,1.4333094 0.593322,0.7051112 0.911222,1.5112835 0.911222,2.3107776 0,0.6753257 -0.220485,1.7555607 -0.489965,2.4005167 -0.269479,0.644946 -0.930673,1.5193016 -1.46932,1.9429969 -0.538647,0.4237051 -1.39753,0.7641081 -1.908643,0.7564521 z M 91.401247,8.8782707 c 0.50718,0.00302 1.200329,-0.3019646 1.540349,-0.6776727 0.34002,-0.3757181 0.703177,-1.316595 0.807029,-2.0908363 0.150307,-1.1206072 0.03546,-1.5610939 -0.563134,-2.1596744 -0.413582,-0.413572 -1.126948,-0.7519501 -1.585254,-0.7519501 -0.458316,0 -1.102788,0.2977743 -1.432159,0.6617274 -0.329373,0.363953 -0.74862,1.1839151 -0.931657,1.8221324 -0.224459,0.7826421 -0.203639,1.4059011 0.06396,1.9145409 0.218215,0.4147808 0.572701,0.871636 0.787744,1.0152248 0.215045,0.1435888 0.80595,0.2635164 1.313119,0.266508 z M 62.511564,9.5703577 C 61.672054,9.5571622 60.633796,9.3765355 60.204322,9.1690444 59.774851,8.9615432 59.1752,8.2686 58.871765,7.6291539 58.568332,6.9897178 58.320068,5.7400671 58.320068,4.8521534 c 0,-1.1740639 0.223777,-1.8745416 0.820443,-2.56821 0.626462,-0.728309 1.236467,-0.9937997 2.580012,-1.1228937 1.429049,-0.1373134 1.925744,-0.028708 2.644206,0.5784247 0.864346,0.7303437 0.868905,0.7596558 0.198764,1.2778951 -0.608027,0.4702017 -0.752362,0.4702319 -1.2717,2.316e-4 -0.322205,-0.2915895 -0.908243,-0.5301655 -1.302307,-0.5301655 -0.394064,0 -0.981124,0.2924256 -1.304577,0.6498413 -0.323456,0.3574158 -0.588098,1.1494257 -0.588098,1.7600231 0,0.6105974 0.187322,1.521306 0.41627,2.0237913 0.228947,0.5024853 0.788262,1.0069751 1.242924,1.1210907 0.454661,0.1141156 1.069276,0.1143774 1.365807,5.741e-4 0.296534,-0.1137932 0.68788,-0.5980869 0.869662,-1.0762059 0.24557,-0.6458928 0.518172,-0.8202341 1.060712,-0.6783576 0.418323,0.1093914 0.730202,0.4836993 0.730202,0.8763601 0,0.3769672 -0.3925,1.0778981 -0.872221,1.5576187 -0.666864,0.6668645 -1.231585,0.8665592 -2.398603,0.8481662 z M 71.056252,8.6217147 67.979423,8.8010118 67.728658,4.7876467 C 67.590736,2.5802873 67.585562,0.6000612 67.717155,0.38714081 67.859187,0.15732821 69.175352,0 70.955912,0 c 2.762589,0 2.99949,0.0561059 2.99949,0.71069157 0,0.63854963 -0.236901,0.71070163 -2.333368,0.71070163 -2.32786,0 -2.333105,0.00201 -2.220929,0.9629163 0.108484,0.9290413 0.179827,0.95927 2.027964,0.8593773 1.302665,-0.070409 2.011496,0.047846 2.215488,0.3696341 0.164977,0.2602529 0.302412,0.5851735 0.305404,0.7220538 0.0028,0.1368702 -0.954,0.3574158 -2.126651,0.4900856 -2.076252,0.2348994 -2.132092,0.2690162 -2.132092,1.3027549 v 1.0615499 l 2.299625,-0.1464294 c 1.788266,-0.1138738 2.343975,-0.030823 2.499088,0.3733712 0.109707,0.2858883 0.0743,0.633624 -0.0787,0.7727505 -0.152987,0.1391266 -1.662733,0.3336338 -3.354988,0.4322573 z m 10.094963,-0.00705 c -0.146582,0.070409 -0.594886,0.072827 -0.996235,0.00504 C 79.439144,8.4994144 79.433747,8.4246939 79.871419,4.692644 80.116805,2.600206 80.325252,0.67427266 80.33463,0.41279094 c 0.01244,-0.34643632 0.378582,-0.42131806 1.349607,-0.27601687 0.732906,0.10966337 2.073139,0.29894273 2.978298,0.4206029 1.37227,0.18445445 1.617311,0.32992689 1.474646,0.87547373 -0.143348,0.5481657 -0.494649,0.6434853 -2.166286,0.5878327 -1.697675,-0.056509 -2.015513,0.03324 -2.13147,0.601693 -0.07495,0.3674685 0.07934,0.8047621 0.342872,0.9717704 0.263531,0.1670082 1.089922,0.3060945 1.83642,0.3090861 1.196061,0.00504 1.343787,0.098613 1.243721,0.7901968 -0.102842,0.7107318 -0.289525,0.7752889 -1.979133,0.684351 L 81.417726,5.2773495 V 6.881797 c 0,0.8824442 -0.119931,1.6620543 -0.266511,1.7324738 z"
           id="path917" />
      </g>
    </g>
  </g>
</svg>
