<?xml version="1.0" encoding="UTF-8" standalone="no"?>
<!-- Created with Inkscape (http://www.inkscape.org/) -->

<svg
   width="256"
   height="256"
   viewBox="0 0 67.733336 67.733333"
   version="1.1"
   id="svg905"
   xml:space="preserve"
   inkscape:version="1.2.1 (9c6d41e4, 2022-07-14)"
   sodipodi:docname="hats_new_logo.svg"
   xmlns:inkscape="http://www.inkscape.org/namespaces/inkscape"
   xmlns:sodipodi="http://sodipodi.sourceforge.net/DTD/sodipodi-0.dtd"
   xmlns="http://www.w3.org/2000/svg"
   xmlns:svg="http://www.w3.org/2000/svg"><sodipodi:namedview
     id="namedview907"
     pagecolor="#505050"
     bordercolor="#eeeeee"
     borderopacity="1"
     inkscape:showpageshadow="0"
     inkscape:pageopacity="0"
     inkscape:pagecheckerboard="0"
     inkscape:deskcolor="#505050"
     inkscape:document-units="mm"
     showgrid="false"
     inkscape:zoom="2.9882813"
     inkscape:cx="128.16732"
     inkscape:cy="128"
     inkscape:window-width="1512"
     inkscape:window-height="917"
     inkscape:window-x="84"
     inkscape:window-y="52"
     inkscape:window-maximized="0"
     inkscape:current-layer="svg905" /><defs
     id="defs902" /><g
     inkscape:groupmode="layer"
     id="layer3"
     inkscape:label="background" /><g
     inkscape:groupmode="layer"
     id="layer2"
     inkscape:label="circle_background" /><g
     inkscape:label="logo_and_text"
     inkscape:groupmode="layer"
     id="layer1" /><g
     id="g4369"
     transform="matrix(0.40594085,0,0,0.40594085,-2.8242206,-27.384045)"><circle
       style="fill:#ffffff;fill-opacity:1;stroke:none;stroke-width:4.75653;stroke-dasharray:none"
       id="path3931"
       cx="90.384811"
       cy="150.8858"
       r="83.427589" /><g
       id="g4352"
       transform="translate(164.45468,75.421921)"><circle
         style="fill:#f2e558;fill-opacity:1;stroke:none;stroke-width:0.9375;stroke-dasharray:none"
         id="path3774"
         cx="-74.069862"
         cy="79.053406"
         r="63.142429" /><path
         style="fill:#264167;fill-opacity:1;stroke-width:0.151373"
         d="m -77.716939,142.91908 -0.37843,-0.042 -2.11922,-0.17321 -2.11922,-0.17322 -1.81648,-0.30088 -1.81647,-0.30089 -1.05961,-0.23056 -1.05961,-0.23056 -0.9454,-0.20547 -0.9454,-0.20546 -1.855,-0.53265 -1.855,-0.53265 -1.67978,-0.59999 -1.67979,-0.59999 -1.80179,-0.75489 -1.801791,-0.75488 -1.96826,-0.97551 -1.96826,-0.97551 -1.74037,-1.02993 -1.74038,-1.02994 -1.36236,-0.90845 -1.36235,-0.90846 -1.43805,-1.05943 -1.43804,-1.05944 -1.36235,-1.14211 -1.36236,-1.14211 -0.89512,-0.83863 -0.89513,-0.83862 -1.85498,-1.89216 -1.85499,-1.89217 -1.01086,-1.21098 -1.01086,-1.21098 -1.30284,-1.73655 -1.30284,-1.73654 -1.14822,-1.74503 -1.14822,-1.74503 -0.38977,-0.68118 -0.38977,-0.68118 -0.50279,-0.90824 -0.5028,-0.90823 -0.85854,-1.74079 -0.85854,-1.74079 -0.54346,-1.28667 -0.54345,-1.28667 -0.44188,-1.1353 -0.44188,-1.13529 -0.61652,-1.901875 -0.61653,-1.90186 -0.47214,-1.87016 -0.47215,-1.87016 -0.2844,-1.38221 -0.2844,-1.38221 -0.30802,-2.26304 -0.30801,-2.26303 -0.17655,-2.04354 -0.17654,-2.04353 0.0906,-4.01138 0.0906,-4.01138 0.29637,-2.2706 0.29637,-2.27059 0.23938,-1.37403 0.23938,-1.37404 0.60001,-2.43434 0.60001,-2.43433 0.55258,-1.716743 0.55259,-1.71674 0.57534,-1.51373 0.57535,-1.51373 0.53204,-1.23771 0.53204,-1.23772 0.97993,-1.96276 0.97994,-1.96276 0.87173,-1.49209 0.87172,-1.49208 0.98598,-1.51372 0.98598,-1.51373 1.32364,-1.74079 1.32364,-1.74079 1.0059,-1.21098 1.0059,-1.21099 1.85553,-1.89216 1.85553,-1.892158 0.89702,-0.843412 0.89702,-0.843411 1.43804,-1.203631 1.43804,-1.203632 1.89247,-1.358848 1.89247,-1.358845 0.83224,-0.55085 0.83224,-0.550849 1.43805,-0.858822 1.43804,-0.858822 2.36601,-1.197026 2.36602,-1.197028 1.698251,-0.695557 1.69825,-0.695555 1.6879,-0.606435 1.68791,-0.606434 2.64902,-0.72326 2.64903,-0.723258 0.90824,-0.174036 0.90823,-0.174038 1.61546,-0.29909 1.61546,-0.299089 2.32024,-0.261899 2.32023,-0.261898 4.54119,0.0031 4.54119,0.0031 2.27486,0.251417 2.27485,0.251418 2.79614,0.532381 2.79613,0.532378 1.6651,0.46336 1.6651,0.463358 0.75687,0.207496 0.75686,0.207496 1.51373,0.545395 1.51373,0.545395 1.58942,0.636682 1.58941,0.636682 2.40625,1.179977 2.40625,1.179977 0.92396,0.552475 0.92395,0.552473 1.81647,1.133296 1.81648,1.133295 2.04353,1.525289 2.04354,1.525289 1.76346,1.544957 1.76347,1.544957 1.55436,1.559419 1.55435,1.559421 1.678291,1.96785 1.67829,1.96785 0.92563,1.21098 0.92563,1.21098 1.2857,1.96785 1.2857,1.96785 0.82495,1.43804 0.82495,1.43804 0.9213,1.81648 0.9213,1.81647 0.86159,2.04354 0.86158,2.04353 0.82523,2.49765 0.82523,2.497663 0.36465,1.43804 0.36465,1.43804 0.38217,1.81647 0.38217,1.81648 0.22658,1.6651 0.22659,1.6651 0.0772,0.75687 0.0772,0.75686 0.15379,1.95199 0.15378,1.95198 -0.001,2.21076 -10e-4,2.21077 -0.15186,2.11923 -0.15186,2.11922 -0.081,0.68118 -0.081,0.68118 -0.22485,1.6651 -0.22485,1.6651 -0.31352,1.51373 -0.31352,1.51373 -0.52126,2.02172 -0.52125,2.02172 -0.75332,2.25571 -0.75331,2.255695 -0.77995,1.85318 -0.77995,1.85318 -1.30971,2.57334 -1.30971,2.57334 -1.01933,1.6465 -1.01934,1.6465 -1.00048,1.45664 -1.00047,1.45664 -0.76359,0.98393 -0.76359,0.98392 -1.27242,1.51373 -1.272421,1.51373 -1.38552,1.43804 -1.38551,1.43804 -1.059,0.98393 -1.05899,0.98392 -0.60236,0.53091 -0.60236,0.53091 -0.83255,0.69873 -0.83255,0.69874 -1.36236,1.02369 -1.36235,1.0237 -2.11922,1.39382 -2.11922,1.39383 -1.81648,0.99797 -1.81647,0.99798 -1.6651,0.78576 -1.6651,0.78576 -1.05962,0.44569 -1.05961,0.44568 -0.99462,0.35905 -0.99462,0.35906 -0.75476,0.2975 -0.75476,0.2975 -2.41337,0.6928 -2.41337,0.69281 -0.75687,0.15059 -0.75686,0.15059 -1.05961,0.23092 -1.05961,0.23092 -1.28667,0.22399 -1.28667,0.22399 -2.19491,0.24228 -2.19491,0.24228 -3.93569,0.0388 -3.9357,0.0388 -0.37843,-0.042 z m 8.47688,-2.10047 1.1353,-0.0965 1.81647,-0.22779 1.81648,-0.22779 1.96784,-0.38521 1.96785,-0.3852 1.96785,-0.50658 1.96785,-0.50658 2.11922,-0.69948 2.11922,-0.69947 0.1438,-0.14084 0.14381,-0.14084 h 0.21332 0.21333 l 1.61072,-0.69894 1.61071,-0.69894 2.05825,-1.02341 2.05825,-1.02341 1.95313,-1.18071 1.95313,-1.18071 0.78825,-0.57851 0.78824,-0.57852 h 0.078 0.078 l 1.6314,-1.23887 1.6314,-1.23887 0.90693,-0.76682 0.90693,-0.76683 0.90954,-0.82847 0.90955,-0.82848 1.36779,-1.36643 1.36778,-1.36643 1.5198,-1.74079 1.51981,-1.74078 1.141081,-1.51373 1.14109,-1.51373 0.90802,-1.36236 0.90801,-1.36235 0.73317,-1.21099 0.73317,-1.21098 0.72929,-1.36236 0.72929,-1.36235 0.50592,-1.05961 0.50592,-1.05961 0.46646,-1.05961 0.46646,-1.05961 0.47892,-1.21099 0.47893,-1.21098 0.73991,-2.270595 0.73992,-2.27059 0.52312,-2.19491 0.52312,-2.19491 0.36937,-2.34628 0.36936,-2.34628 0.20501,-1.89216 0.20501,-1.89216 -0.002,-3.86001 -0.002,-3.86001 -0.20311,-1.81647 -0.20312,-1.81647 -0.20309,-1.36236 -0.20309,-1.36236 -0.24212,-1.35955 -0.24211,-1.35956 -0.53257,-2.12202 -0.53257,-2.12202 -0.6568,-1.967853 -0.6568,-1.96784 -0.47528,-1.21099 -0.47528,-1.21098 -0.48288,-1.1353 -0.48289,-1.13529 -1.15988,-2.27141 -1.15988,-2.27142 -0.79712,-1.28585 -0.79712,-1.28585 -0.54329,-0.85992 -0.54331,-0.85992 -1.12352,-1.56204 -1.12351,-1.56205 -0.69296,-0.82824 -0.692961,-0.82823 -0.37843,-0.44817 -0.37844,-0.44817 -1.46155,-1.59968 -1.46156,-1.59968 -1.64159,-1.527398 -1.64159,-1.527401 -0.90823,-0.749907 -0.90824,-0.749909 -1.28667,-0.988254 -1.28667,-0.988253 -1.21098,-0.829701 -1.21099,-0.829699 -1.7962,-1.110423 -1.79621,-1.110421 -2.36655,-1.170659 -2.36654,-1.170659 -1.43805,-0.612121 -1.43804,-0.612122 -1.43804,-0.524396 -1.43804,-0.524397 -2.04354,-0.614721 -2.04353,-0.61472 -2.45975,-0.53987 -2.45975,-0.53987 -2.38418,-0.313322 -2.38419,-0.313324 -2.11922,-0.122229 -2.11922,-0.122229 -3.17883,0.06867 -3.17882,0.06866 -1.74079,0.209173 -1.74079,0.209175 -1.26488,0.165798 -1.26488,0.165799 -1.38415,0.294376 -1.38414,0.294375 -1.36236,0.311011 -1.36235,0.311011 -1.74079,0.538153 -1.74079,0.538153 -1.58942,0.576978 -1.58941,0.576979 -1.28667,0.557748 -1.28667,0.557749 -1.892161,0.9221 -1.89216,0.922101 -1.43804,0.822486 -1.43805,0.822486 -1.51373,0.984343 -1.51372,0.984342 -1.36236,0.992903 -1.36236,0.992903 -1.51373,1.215102 -1.51372,1.215103 -2.88266,2.882208 -2.88266,2.88221 -1.6072,2.01455 -1.60719,2.01456 -1.35605,1.99682 -1.35606,1.99683 -1.02985,1.81647 -1.02986,1.81648 -0.93468,1.89216 -0.93468,1.89216 -0.80038,1.96785 -0.80038,1.96784 -0.3668,1.05961 -0.3668,1.05961 -0.66152,2.288223 -0.66152,2.28821 -0.38225,1.88752 -0.38225,1.88752 -0.30749,2.10624 -0.30748,2.10624 -0.17268,2.34628 -0.17267,2.34628 0.0881,3.55726 0.0881,3.55727 0.23697,1.89216 0.23698,1.89216 0.30947,1.74079 0.30947,1.74078 0.29341,1.28667 0.2934,1.28667 0.37888,1.43805 0.37887,1.43804 0.39372,1.21098 0.39372,1.21098 0.90772,2.317625 0.90773,2.31761 1.2565,2.52632 1.2565,2.52632 0.99334,1.63302 0.99333,1.63301 0.93633,1.39444 0.93633,1.39444 1.14459,1.4972 1.14459,1.49719 1.62104,1.84652 1.62104,1.84652 2.09289,2.00852 2.09289,2.00851 1.96785,1.55229 1.96785,1.55229 1.6651,1.13855 1.6651,1.13855 1.43804,0.87088 1.43805,0.87087 2.42196,1.23766 2.421971,1.23766 1.51373,0.62132 1.51373,0.62132 1.21098,0.46644 1.21098,0.46643 2.04354,0.61478 2.04353,0.61478 2.21586,0.51451 2.21587,0.51451 2.24963,0.32306 2.24964,0.32307 1.96785,0.18499 1.96784,0.185 3.48158,-0.035 3.48157,-0.035 z m 14.52902,-25.50691 -0.53259,-0.13642 -0.71165,-0.30505 -0.71166,-0.30505 -0.69931,-0.64461 -0.69931,-0.6446 -0.38512,-0.75999 -0.38511,-0.75999 -0.0762,-0.94903 -0.0762,-0.94903 h 1.05976 1.05976 l 0.0934,0.68166 0.0934,0.68166 0.28947,0.56716 0.28947,0.56717 0.28654,0.25912 0.28654,0.25912 0.75133,0.34287 0.75133,0.34286 1.38726,-0.009 1.38726,-0.009 0.87657,-0.44145 0.87657,-0.44144 0.28276,-0.39154 0.28275,-0.39154 0.0831,-0.61983 0.0831,-0.61983 -0.32694,-0.67537 -0.32694,-0.67537 -0.78905,-0.3398 -0.78905,-0.33979 -1.58941,-0.37294 -1.58942,-0.37293 -1.22443,-0.36037 -1.22442,-0.36037 -0.70281,-0.61864 -0.70281,-0.61863 -0.22983,-0.77391 -0.22983,-0.77391 v -0.48638 -0.48639 l 0.30237,-0.97893 0.30236,-0.97893 0.75357,-0.76555 0.75357,-0.765555 0.87407,-0.33189 0.87407,-0.33188 1.28667,-0.0774 1.28667,-0.0774 0.94376,0.24199 0.94376,0.24198 0.72134,0.36864 0.72135,0.368645 0.46457,0.50548 0.46456,0.50548 0.28698,0.66447 0.28697,0.66446 0.005,0.77358 0.005,0.77357 h -0.97829 -0.97829 l -0.13954,-0.60549 -0.13953,-0.60549 -0.3959,-0.59241 -0.39591,-0.59241 -0.60549,-0.31468 -0.60549,-0.31467 -1.18434,-0.0555 -1.18434,-0.0555 -0.65703,0.18395 -0.65703,0.18396 -0.40335,0.42101 -0.40335,0.421 -0.19752,0.57455 -0.19752,0.57455 0.0712,0.45172 0.0712,0.45171 0.22285,0.34012 0.22285,0.34011 0.5424,0.25738 0.54239,0.25739 2.5044,0.59613 2.5044,0.59613 0.7274,0.31292 0.7274,0.31292 0.52763,0.58402 0.52763,0.58403 0.2305,0.55166 0.2305,0.55166 v 1.06141 1.0614 l -0.17278,0.5767 -0.17279,0.57669 -0.45242,0.54887 -0.45242,0.54886 -0.60756,0.38354 -0.60755,0.38353 -0.84862,0.30082 -0.84862,0.30082 -1.6651,0.0567 -1.6651,0.0567 -0.53258,-0.13642 z m -47.376931,-8.00188 v -7.694795 l 0.0624,-0.0631 0.0624,-0.0631 1.07286,0.0503 1.072871,0.0503 v 3.090735 3.09072 l 3.63295,0.0168 3.63295,0.0168 0.34059,0.0167 0.34059,0.0167 0.0329,-2.6447 0.0329,-2.64471 0.005,-0.5298 0.005,-0.529815 1.09753,0.0231 1.09752,0.0231 v 7.696875 7.69688 l -1.0947,0.0444 -1.09469,0.0444 -0.0406,-3.60169 -0.0406,-3.60168 -3.97354,-0.0404 -3.97354,-0.0404 v 3.63546 3.63546 h -1.135211 -1.13529 z m 14.452491,7.43659 0.1096,-0.27161 0.72438,-1.89216 0.72437,-1.89216 0.16372,-0.37844 0.16372,-0.37843 0.7683,-2.04353 0.7683,-2.04353 0.43936,-1.05961 0.43936,-1.05962 0.67182,-1.74078 0.67182,-1.74079 0.10357,-0.340595 0.10356,-0.34059 0.93588,-0.0116 0.93588,-0.0116 0.27316,-0.0519 0.27316,-0.0519 0.21637,0.47979 0.21637,0.479775 1.22515,3.32425 1.22513,3.32425 0.1925,0.53576 0.19249,0.53576 1.23382,3.34691 1.23382,3.34691 v 0.0968 0.0968 h -1.19098 -1.19098 l -0.68658,-2.00569 -0.68657,-2.00569 -0.10148,-0.34369 -0.10147,-0.34369 -3.05412,0.0409 -3.05412,0.0409 -0.84682,2.27059 -0.84683,2.2706 -1.17763,0.0446 -1.17763,0.0445 z m 9.1607,-6.17455 0.13973,-0.0864 -0.61308,-1.69791 -0.61309,-1.69791 -0.35224,-1.05961 -0.35224,-1.05961 -0.1753,-0.45412 -0.1753,-0.45412 -0.76075,2.04354 -0.76074,2.04353 -0.43941,1.1353 -0.43942,1.13529 7.6e-4,0.0995 7.6e-4,0.0995 2.20024,0.0197 2.20024,0.0197 0.13973,-0.0864 z m 10.70744,6.34128 -0.10347,-0.10347 -0.002,-5.99529 -0.002,-5.99529 -0.002,-0.71902 -0.002,-0.71902 h -2.57334 -2.57334 v -0.94609 -0.946085 h 6.35766 6.35766 v 0.946085 0.94609 h -2.57178 -2.57178 l -0.0394,6.77393 -0.0394,6.77394 -1.06623,0.0438 -1.06622,0.0438 z m -34.372861,-20.015205 -0.25052,-0.27683 v -16.82831 -16.82831 l -3.44373,-0.0151 -3.44373,-0.0151 -0.37708,-0.10494 -0.37707,-0.10495 -0.14997,-0.426433 -0.14997,-0.42644 0.67841,-0.5705 0.67842,-0.57049 3.33021,-2.60164 3.3302,-2.60165 1.21098,-0.9731 1.210981,-0.9731 3.18527,-2.53635 3.18527,-2.53634 2.40047,-1.89216 2.40048,-1.89216 0.16642,-0.15304 0.16643,-0.15304 2.49766,-1.96229 2.49765,-1.96229 1.28667,-1.02866 1.28667,-1.02867 0.83255,-0.66729 0.83255,-0.66728 1.21098,-0.959481 1.21098,-0.95948 1.30842,-1.019251 1.30843,-1.019253 h 0.29537 0.29538 l 0.26186,0.28936 0.26187,0.289358 -0.0492,0.419938 -0.0492,0.419935 -1.07025,0.917963 -1.07025,0.917963 -2.78975,2.205508 -2.78976,2.20552 -3.02746,2.40082 -3.02746,2.40083 -3.3302,2.65088 -3.3302,2.65088 -3.04831,2.43065 -3.0483,2.43064 -3.260771,2.57334 -3.26077,2.57334 -0.0108,0.10377 -0.0108,0.10377 2.66152,0.0476 2.66153,0.0476 0.21456,0.29384 0.21456,0.29383 v 17.388903 17.3889 l -0.1567,0.2928 -0.1567,0.29279 h -0.5767 -0.57671 l -0.25052,-0.27682 z m 5.501651,-0.0259 -0.30274,-0.30274 v -0.27929 -0.27928 l 0.27682,-0.25052 0.27682,-0.25052 h 5.62384 5.62383 l 0.0659,-0.34059 0.0659,-0.34059 0.16837,-9.91493 0.16837,-9.91492 0.21536,-1.09871 0.21535,-1.09871 0.38229,-0.76113 0.3823,-0.76112 0.44224,-0.64279 0.44225,-0.64278 0.82517,-0.76105 0.82517,-0.76105 1.22815,-0.63895 1.22815,-0.63895 1.1787,-0.31986 1.17869,-0.31986 h 1.89216 1.89217 l 1.17869,0.31986 1.1787,0.31986 1.23567,0.64286 1.23568,0.64287 1.14959,1.14054 1.1496,1.14053 0.46604,0.98392 0.46604,0.98393 0.1692,0.5298 0.1692,0.52981 0.23487,1.51373 0.23486,1.51373 0.13769,4.84393 0.1377,4.84393 0.0805,2.64903 0.0805,2.64902 0.002,1.77863 0.002,1.77863 h 7.34533 7.34533 l 0.14265,-0.3752 0.14266,-0.37521 0.007,-12.37796 0.007,-12.37796 0.0968,-3.97659 0.0968,-3.976593 0.19125,-0.26185 0.19124,-0.26185 2.91199,-0.0757 2.91199,-0.0757 -2.10486,-1.69615 -2.10486,-1.69614 -1.51372,-1.23051 -1.51373,-1.2305 -2.87609,-2.31764 -2.87608,-2.31764 -2.57334,-2.08112 -2.57334,-2.08111 -3.25452,-2.61131 -3.25452,-2.6113 -1.81647,-1.45628 -1.81647,-1.45627 -0.20619,-0.29833 -0.20619,-0.29832 0.0969,-0.38603 0.0969,-0.38603 0.39348,-0.1496 0.39348,-0.1496 0.51704,0.30506 0.51704,0.30507 1.09095,0.87103 1.09094,0.87104 0.0757,0.0767 0.0757,0.0767 1.1353,0.90755 1.13529,0.90755 0.0757,0.0851 0.0757,0.0851 3.09234,2.48859 3.09235,2.4886 1.6759,1.35472 1.6759,1.35473 1.22599,0.99155 1.22599,0.99155 3.99042,3.25452 3.99041,3.25452 1.97381,1.64226 1.9738,1.64226 0.64334,0.59882 0.64333,0.59883 -0.002,0.25656 -0.002,0.256573 -0.11121,0.16656 -0.11121,0.16655 -0.30815,0.162 -0.30815,0.162 -3.31192,0.0118 -3.31191,0.0118 -0.0599,0.0599 -0.0599,0.0599 -0.0867,16.40219 -0.0867,16.40219 -0.22804,0.45412 -0.22805,0.45412 -0.1681,0.11121 -0.16809,0.11121 -8.73097,0.002 -8.73097,0.002 -0.22188,-0.22188 -0.22188,-0.22187 -0.087,-2.16225 -0.087,-2.16224 -0.23954,-8.62826 -0.23955,-8.62825 -0.20857,-0.78666 -0.20857,-0.78665 -0.31857,-0.72017 -0.31857,-0.72018 -0.59066,-0.78232 -0.59065,-0.78231 -1.01645,-0.76121 -1.01645,-0.76121 -1.01528,-0.39834 -1.01527,-0.39833 -0.96755,-0.16003 -0.96755,-0.16003 -1.26798,0.0987 -1.26797,0.0987 -0.94503,0.34303 -0.94503,0.34302 -0.66308,0.39264 -0.66308,0.39264 -0.84934,0.80646 -0.84935,0.80645 -0.44848,0.68118 -0.44849,0.68118 -0.34492,0.86525 -0.34492,0.86525 -0.0404,0.64848 -0.0404,0.64848 -0.19221,10.5961 -0.1922,10.5961 -0.14892,0.18921 -0.1489,0.18922 h -6.41482 -6.41481 l -0.30275,-0.30274 z m 21.33037,-35.579923 -0.84576,-0.12704 -1.0392,-0.49639 -1.03921,-0.4964 -0.85228,-0.83664 -0.85228,-0.83663 -0.55216,-1.1353 -0.55216,-1.1353 -0.16052,-1.04233 -0.16052,-1.04234 0.0969,-0.69845 0.0969,-0.69845 0.21913,-0.78226 0.21913,-0.78226 0.57361,-0.88284 0.57362,-0.88284 0.71658,-0.65628 0.71659,-0.65627 0.94103,-0.44036 0.94102,-0.44036 0.90264,-0.16817 0.90264,-0.16816 1.05961,0.0768 1.05961,0.0768 0.7934,0.31484 0.7934,0.31485 0.64146,0.40494 0.64146,0.40494 0.68436,0.6967 0.68436,0.6967 0.41129,0.76673 0.41129,0.76674 0.23205,0.89086 0.23204,0.89087 v 0.99324 0.99324 l -0.27896,1.00601 -0.27896,1.00601 -0.47968,0.74752 -0.47968,0.74751 -0.64156,0.63992 -0.64156,0.63992 -0.64411,0.38067 -0.64411,0.38067 -0.71825,0.2685 -0.71824,0.26851 -1.05961,0.0793 -1.05961,0.0793 z m 3.70579,-2.17157 0.8922,-0.43807 0.59864,-0.59864 0.59864,-0.59864 0.47701,-1.00682 0.47702,-1.00682 v -1.36236 -1.36235 l -0.4356,-0.88714 -0.4356,-0.88713 -0.43898,-0.49997 -0.43898,-0.49997 -0.72482,-0.46511 -0.72482,-0.46512 -1.11122,-0.25095 -1.11123,-0.25094 -0.98114,0.18078 -0.98113,0.18078 -0.60603,0.30917 -0.60602,0.30917 -0.70876,0.66296 -0.70876,0.66296 -0.44287,0.87457 -0.44289,0.87457 v 1.58941 1.58942 l 0.4079,0.77312 0.40789,0.77313 0.40424,0.48042 0.40424,0.48041 0.62672,0.4312 0.62673,0.4312 0.68036,0.24505 0.68036,0.24505 1.36236,-0.0376 1.36235,-0.0376 z m 65.7875753,50.146548 v -0.1689 l 0.26259,-0.73934 0.26259,-0.73933 h 0.39817 0.39818 l 0.40187,-0.31612 0.40187,-0.31611 0.22403,-0.43323 0.22404,-0.43324 -0.002,-0.57516 -0.002,-0.57517 -0.11121,-0.16656 -0.11122,-0.16655 -0.34059,-0.17936 -0.34058,-0.17936 -0.31319,0.16761 -0.31319,0.16762 -0.84004,1.3136 -0.84003,1.31359 -0.398354,0.42979 -0.39835,0.42979 -0.40876,0.21355 -0.40876,0.21354 h -0.55858 -0.55859 l -0.67312,-0.33617 -0.6731203,-0.33618 -0.38949,-0.66461 -0.38949,-0.66461 -0.007,-0.85353 -0.007,-0.85353 0.26732,-0.83255 0.26731,-0.83255 0.5195,-0.71533 0.5195003,-0.715335 0.6117,-0.31206 0.6117,-0.31207 0.68704,-0.0138 0.68704,-0.0138 0.15644,0.15645 0.15645,0.15644 -0.30084,0.809055 -0.30083,0.80905 -0.58357,0.0491 -0.58357,0.0491 -0.2022,0.16781 -0.2022,0.16781 -0.27354,0.53993 -0.27355,0.53993 -0.10194,0.61261 -0.10194,0.61261 0.32185,0.40916 0.32185,0.40916 h 0.33912 0.33913 l 0.38725,-0.41628 0.38725,-0.41627 0.70581,-1.08447 0.705804,-1.08448 0.6008,-0.54278 0.6008,-0.54279 h 0.68678 0.68677 l 0.56162,0.28801 0.56161,0.28802 0.33051,0.35532 0.33051,0.35532 0.16145,0.42613 0.16146,0.42613 v 0.80366 0.80367 l -0.23327,0.66236 -0.23326,0.66237 -0.39945,0.57722 -0.39944,0.57722 -0.62942,0.36886 -0.62941,0.36886 h -0.8571 -0.85709 v -0.1689 z m -140.2351263,-1.97857 -0.0617,-0.19881 -0.23954,-0.74469 -0.23954,-0.74469 0.0374,-0.0324 0.0374,-0.0324 1.58941,-0.50961 1.58942,-0.50961 -0.025,-0.22706 -0.025,-0.22706 -0.40578,-1.36235 -0.40579,-1.362365 -0.0597,-0.0968 -0.0598,-0.0968 -1.62043,0.5087 -1.62043,0.508715 -0.0241,-0.0334 -0.0241,-0.0334 -0.24898,-0.745995 -0.24899,-0.74599 v -0.18535 -0.18535 l 1.09746,-0.3193 1.09745,-0.3193 1.6651,-0.50996 1.6651,-0.50996 1.56656,-0.48239 1.56657,-0.48239 0.0388,0.0481 0.0388,0.0481 0.24898,0.74599 0.24899,0.74599 v 0.20009 0.20009 h -0.20205 -0.20207 l -1.6901,0.53518 -1.6901,0.53518 v 0.0845 0.0845 l 0.47378,1.537395 0.47377,1.53739 0.0381,0.0451 0.0381,0.0452 1.84822,-0.53711 1.84822,-0.5371 h 0.10616 0.10616 l 0.17251,0.64333 0.17252,0.64334 0.0987,0.25602 0.0987,0.25603 -1.3373,0.40228 -1.3373,0.40228 -1.36236,0.42227 -1.36235,0.42227 -1.58942,0.49193 -1.58941,0.49193 -0.1146,0.0643 -0.1146,0.0643 z m 143.4896463,-6.405325 -0.15138,-0.049 -0.40461,-0.0889 -0.4046,-0.0889 -0.47882,-0.4029 -0.47882,-0.40289 -0.13563,-0.35673 -0.13562,-0.35672 -0.32646,0.32646 -0.32646,0.32646 -1.303524,-0.12101 -1.30351,-0.12102 -0.64333,0.005 -0.64334,0.005 0.007,-0.0945 0.007,-0.0945 0.18988,-0.90823 0.18989,-0.90824 0.6739,0.009 0.67391,0.009 0.9188,0.12139 0.918814,0.1214 0.23624,-0.23625 0.23625,-0.23625 0.24097,-1.02904 0.24096,-1.02904 0.042,-0.28782 0.042,-0.28781 -0.83256,-0.18181 -0.83255,-0.18181 -0.881444,-0.18704 -0.88145,-0.18704 0.1057,-0.63001 0.1057,-0.63 0.12428,-0.32906 0.12429,-0.32906 0.9542,0.22405 0.954224,0.22406 1.81647,0.3748 1.81647,0.3748 1.66511002,0.35698 1.66509998,0.35698 -0.0397,0.35715 -0.0397,0.35714 -0.37937998,1.81648 -0.37937,1.81647 -0.15743,0.57706 -0.15741,0.57706 -0.52934,0.5859 -0.52932,0.58591 -0.48355002,0.0972 -0.48354,0.0972 -0.22706,0.0509 -0.22706,0.0509 -0.15137,-0.049 z m 0.89301,-2.24052 0.2697,-0.1972 0.28785,-1.203 0.28786002,-1.20299 0.002,-0.2465 0.002,-0.2465 -0.97719002,-0.24546 -0.97719,-0.24546 h -0.14168 -0.14168 l -0.24349,1.07818 -0.24348,1.07817 v 0.57834 0.57834 l 0.33643,0.23565 0.33642,0.23564 h 0.4672 0.46718 l 0.2697,-0.19721 z m -139.3235163,-2.08419 -0.68118,-0.12658 -1.6651,-0.31045 -1.66511,-0.31045 -1.81647,-0.32149 -1.81647,-0.32149 -0.30212,-0.11118 -0.30211,-0.11118 -0.16511,-1.00665 -0.16512,-1.00666 0.16448,-0.12865 0.16448,-0.12866 1.74079,-0.9505 1.74079,-0.95051 0.68118,-0.37777 0.68118,-0.37778 1.51372,-0.82728 1.51373,-0.82728 0.17179,-0.13983 0.17178,-0.13982 0.0847,0.34466 0.0847,0.34465 0.0993,0.76175 0.0993,0.76175 -0.78192,0.36623 -0.78193,0.36624 -0.0768,0.12425 -0.0768,0.12425 0.25808,1.57264 0.25807,1.57263 0.95888,0.18093 0.95889,0.18093 0.0721,0.24872 0.0721,0.24872 0.10149,0.71902 0.1015,0.71902 -0.35778,-0.0178 -0.35777,-0.0178 z m -2.61898,-2.61449 -0.078,-0.20333 -0.10698,-0.85628 -0.10699,-0.85628 h -0.0639 -0.0638 l -1.43244,0.7113 -1.43244,0.7113 v 0.11198 0.11197 l 0.71902,0.0958 0.71902,0.0958 0.60549,0.12434 0.60549,0.12435 0.35679,0.0162 0.35678,0.0162 z m 144.03210632,-2.63141 -0.49896,-0.0616 0.0723,-0.25479 0.0723,-0.25479 0.0999,-1.74079 0.0999,-1.74079 0.024,-0.37601 0.024,-0.37602 -0.82913,-0.1036 -0.82913002,-0.10361 -0.0959,0.0593 -0.0959,0.0593 -0.10095,1.47995 -0.10095,1.47995 -0.0897,0.65062 -0.0897,0.65061 -0.77643,-0.0451 -0.77643,-0.0451 0.0201,-0.15138 0.0201,-0.15137 0.10564,-2.08138 0.10564,-2.08137 -0.42845,-0.009 -0.42846,-0.009 -0.63867,-0.0734 -0.63867,-0.0734 -0.074,0.34769 -0.074,0.34769 -0.18002,2.1736 -0.18003,2.17361 -0.772394,-0.10156 -0.77239,-0.10157 -0.0931,-0.10419 -0.0931,-0.1042 0.12648,-1.36235 0.12649,-1.36236 0.17473,-1.93 0.17472,-1.93001 h 0.24428 0.244274 l 2.95352,0.2356 2.95352002,0.23559 1.36236,0.10499 1.36235998,0.105 -0.0214,0.37843 -0.0214,0.37844 -0.17119,2.42196 -0.1712,2.42197 -0.0856,0.56765 -0.0856,0.56765 -0.32728,-0.0242 -0.32728998,-0.0242 -0.49895,-0.0616 z m -150.61471632,-5.218 0.0435,-1.39234 3.17883,-0.79598 3.17883,-0.79598 0.15138,-0.0112 0.15137,-0.0112 -0.22706,-0.1299 -0.22706,-0.1299 -2.72471,-0.56875 -2.72471,-0.56875 -0.45412,-0.0973 -0.45412,-0.0973 -0.0435,-1.39433 -0.0435,-1.39435 h 1.18835 1.18834 l 3.33656,-0.0909 3.33656,-0.0909 0.0976,0.48824 0.0976,0.48823 v 0.4352 0.4352 h -3.1699 -3.16989 l -0.0868,0.14047 -0.0868,0.14048 0.2671,0.0776 0.2671,0.0776 2.31756,0.46323 2.31757,0.46323 0.67205,0.16923 0.67205,0.16922 v 0.9289 0.9289 l -3.33021,0.81044 -3.3302,0.81044 v 0.0765 0.0765 l 3.3223,-0.0691 3.3223,-0.0691 0.0996,0.79718 0.0996,0.79718 -0.10063,0.16282 -0.10063,0.16282 h -4.53793 -4.53794 z m 150.70574632,-4.17062 -0.0295,-0.87039 -0.0174,-0.45412 -0.0174,-0.45412 -3.16975002,0.0563 -3.16976,0.0562 -0.56771,0.0194 -0.567724,0.0194 -0.002,-0.37843 -0.002,-0.37843 -0.0912,-0.55144 -0.0912,-0.55144 0.58482,-0.0857 0.584834,-0.0857 3.23125,-0.10001 3.23125002,-0.10002 -0.051,-1.23069 -0.051,-1.23069 0.12102,-0.18921 0.12101,-0.18922 h 0.65271998 0.65272 l 0.0913,1.32451 0.0913,1.32452 0.0998,2.32487 0.0998,2.32488 -0.2094,0.13261 -0.20939,0.13262 -0.64334,0.002 -0.64332998,0.002 -0.0295,-0.87039 z m -143.01788632,-4.89164 -1.1353,-0.12012 -1.28667,-0.1004 -1.28667,-0.1004 -0.37843,-0.0384 -0.37843,-0.0384 -1.55828,-0.11896 -1.55828,-0.11897 0.0445,-0.9261 0.0446,-0.92611 0.75687,0.0103 0.75686,0.0103 1.28667,0.10753 1.28667,0.10754 1.58942,0.15307 1.58941,0.15307 0.75687,0.0563 0.75686,0.0563 0.18922,0.0134 0.18921,0.0134 v 0.51088 0.51089 l -0.0946,0.47304 -0.0946,0.47304 -0.17029,-0.0206 -0.1703,-0.0206 z m 135.1714123,-1.903 -0.005,-0.13067 -0.42925,-3.02746 -0.42925,-3.02745 0.0249,-0.0325 0.0249,-0.0325 1.884854,-0.29873 1.88484,-0.29872 0.68118,-0.0879 0.68118,-0.0879 1.51373,-0.22853 1.51372002,-0.22853 0.40782,-0.0658 0.40781,-0.0658 0.0755,0.25942 0.0755,0.25943 0.0984,0.69852 0.0984,0.69852 -1.1872581,0.179 -1.1872519,0.179 -2.48214,0.36841 -2.48214,0.3684 -0.0396,0.0407 -0.0396,0.0408 0.28985,1.96785 0.28984,1.96784 0.0682,0.18437 0.0682,0.18437 -0.14971,0.0925 -0.14971,0.0925 -0.751914,0.0808 -0.75192,0.0808 -0.005,-0.13067 z m -137.8961223,-2.23045 -4.46551,-0.73887 -0.0341,-0.0276 -0.0341,-0.0276 0.0912,-0.77014 0.0912,-0.77013 0.10909,-0.17651 0.10909,-0.17651 3.31541,0.54771 3.31542,0.54771 0.31933,0.0783 0.31933,0.0783 0.24344,-1.33559 0.24344,-1.33559 0.10318,-0.88552 0.10319,-0.88552 0.83545,0.0911 0.83544,0.0911 0.0529,0.0529 0.0529,0.0529 -0.46695,2.78505 -0.46696,2.78505 -0.10343,0.37915 -0.10343,0.37915 z m 135.9582223,-8.12577 -0.8071603,-2.904503 -0.0775,-0.47747 -0.0775,-0.47747 1.3387703,-0.33001 1.33877,-0.33001 3.015294,-0.84408 3.01529,-0.84407 0.10544,0.11813 0.10546,0.11813 0.26987,1.05961 0.26988002,1.05961 0.58347,2.030383 0.58345,2.03039 -0.0384,0.0355 -0.0384,0.0355 -0.78776,0.23235 -0.78774002,0.23236 -0.0781,-0.25468 -0.0781,-0.25468 -0.53945,-2.03605 -0.53944,-2.036063 -0.035,-0.035 -0.035,-0.035 -0.86812,0.24163 -0.86812,0.24163 v 0.0966 0.0966 l 0.5298,1.876293 0.52981,1.87628 v 0.17919 0.17918 l -0.70362,0.17717 -0.70363,0.17718 -0.10642,-0.12136 -0.10642,-0.12136 -0.26125,-0.98393 -0.26126,-0.98392 -0.29138,-1.00135 -0.29139,-1.001353 -1.005244,0.27875 -1.00524,0.278743 -0.0596,0.0596 -0.0596,0.0596 0.61106,2.21407 0.61106,2.21407 v 0.15562 0.15562 l -0.41628,0.15864 -0.41627,0.15864 -0.37843,0.0749 -0.37844,0.0749 z m -138.3318223,-0.0448 -0.63281,-0.17436 -0.0917,-0.0938 -0.0917,-0.0938 0.98769,-3.449173 0.98768,-3.44918 0.0823,-0.0823 0.0823,-0.0823 0.70996,0.18989 0.70996,0.18988 0.04,0.04 0.04,0.04 -0.30067,1.085 -0.30067,1.085 v 0.23372 0.23373 l 0.18922,0.0584 0.18921,0.0584 1.81648,0.52407 1.81647,0.52408 1.21099,0.34187 1.21098,0.34186 0.33134,0.123243 0.33134,0.12324 -0.24292,0.87766 -0.24292,0.87766 -0.0357,0.0482 -0.0357,0.0482 -3.4863,-0.99429 -3.4863,-0.99429 h -0.13999 -0.13999 l -0.34578,1.28667 -0.34577,1.28667 -0.092,-0.0149 -0.092,-0.0149 z m 136.655592,-5.585943 -0.12964,-0.34059 -0.22825,-0.54593 -0.22825,-0.54592 0.55085,-0.23578 0.55085,-0.23577 1.1352903,-0.46878 1.1353,-0.46878 0.18866,-0.12046 0.18867,-0.12047 -0.6026,-1.35377 -0.60259,-1.35376 -0.002,-0.18922 -0.002,-0.18921 h -0.16491 -0.16492 l -1.7908403,0.73913 -1.79084,0.73913 -0.39052,-0.90048 -0.39053,-0.90048 v -0.0657 -0.0657 h 0.17122 0.17122 l 1.45604,-0.61962 1.45604,-0.61961 1.3623503,-0.57449 1.36236,-0.57449 1.257894,-0.54502 1.25789,-0.54502 0.37733,0.8532 0.37733,0.8532 -0.13809,0.13809 -0.13808,0.13808 -1.42145,0.59139 -1.421454,0.59139 0.0435,0.19429 0.0435,0.1943 0.52413,1.23723 0.524124,1.23724 v 0.16296 0.16296 h 0.18921 0.18922 l 1.49397,-0.61263 1.49398,-0.61263 0.0257,0.045 0.0257,0.045 0.36517,0.80472 0.36519,0.80473 -0.21979,0.1397 -0.21979,0.1397 -1.13529,0.47196 -1.1353,0.47196 -2.829244,1.1948 -2.8292303,1.19479 h -0.0884 -0.0884 z m -129.892182,-1.30721 -0.83255,-0.26917 -0.61326,-0.31592 -0.61326,-0.31591 -0.61883,-0.61883 -0.61882,-0.61882 -0.27327,-0.56659 -0.27327,-0.56658 -0.0599,-0.90823 -0.06,-0.90824 0.32918,-0.87529 0.32919,-0.87528 0.48202,-0.63198 0.48202,-0.63197 0.82979,-0.4353 0.82978,-0.43529 1.2192,0.0504 1.2192,0.0504 1.15134,0.5692 1.15135,0.56921 0.56795,0.56609 0.56796,0.56609 0.37109,0.80809 0.37108,0.8081 -0.0645,0.85701 -0.0645,0.857 -0.42737,0.9457 -0.42737,0.9457 -0.6463,0.59574 -0.6463,0.59574 -0.79872,0.23719 -0.79871,0.2372 -0.61586,-0.008 -0.61586,-0.008 z m 2.57931,-1.85854 0.50527,-0.17614 0.34806,-0.39151 0.34806,-0.39151 0.17277,-0.55305 0.17277,-0.55304 -0.10872,-0.58225 -0.10872,-0.58225 -0.63565,-0.61005 -0.63565,-0.61005 -0.8781,-0.33603 -0.8781,-0.33603 h -0.72101 -0.72101 l -0.51435,0.3436 -0.51435,0.34361 -0.26466,0.52679 -0.26467,0.52679 3.3e-4,0.60549 3.3e-4,0.60549 0.2893,0.47443 0.28929,0.47443 0.55517,0.42345 0.55518,0.42345 0.78222,0.27032 0.78223,0.27032 0.46937,0.005 0.46938,0.005 0.50527,-0.17613 z m 123.851862,-5.59347 -0.64636,-0.31994 -0.53102,-0.62038 -0.53102,-0.62037 -0.39311,-0.83097 -0.39311,-0.83098 v -0.94266 -0.94266 l 0.33879,-0.54817 0.33879,-0.54818 0.36603,-0.23983 0.36603,-0.23984 0.0517,0.0583 0.0517,0.0584 0.45197,0.73353 0.45197,0.73353 -0.35705,0.35704 -0.35704,0.35704 v 0.47597 0.47597 l 0.24667,0.51983 0.24668,0.51982 0.41955,0.44913 0.41955,0.44913 h 0.44561 0.44561 l 0.25052,-0.27682 0.25052,-0.27682 v -0.31006 -0.31005 l -0.45412,-1.47527 -0.45411,-1.47528 v -0.80867 -0.80866 l 0.45504,-0.51827 0.45503,-0.51826 0.51392,-0.24387 0.51392,-0.24387 h 0.70366 0.70366 l 0.4844503,0.24237 0.48444,0.24237 0.51395,0.54692 0.51395,0.54692 0.35496,0.76228 0.35497,0.76229 0.002,0.87642 0.002,0.87643 -0.30469,0.59724 -0.3047,0.59725 -0.3812,0.24978 -0.38121,0.24978 -0.0488,-0.0584 -0.0488,-0.0584 -0.41854,-0.72511 -0.41854,-0.72511 0.28286,-0.31261 0.28285,-0.31262 -0.0144,-0.65796 -0.0144,-0.65797 -0.41753,-0.54741 -0.41753,-0.54742 -0.3641303,-0.1659 -0.36412,-0.16591 -0.36439,0.19501 -0.36439,0.19502 -0.0757,0.28967 -0.0757,0.28967 0.36733,1.31883 0.36733,1.31884 0.17484,0.86144 0.17484,0.86144 -0.36935,0.71773 -0.36936,0.71774 -0.66343,0.35083 -0.66343,0.35082 -0.61952,-1.1e-4 -0.61953,-1.2e-4 -0.64636,-0.31995 z m -120.531922,-1.02288 -1.43375,-0.88894 -2.04353,-1.24732 -2.04354,-1.24733 -0.3495,-0.21934 -0.34951,-0.21935 0.40661,-0.70968 0.4066,-0.7097 0.16996,-0.17837 0.16996,-0.17838 3.48158,0.10786 3.48157,0.10786 0.045,-0.0249 0.045,-0.0249 -0.98736,-0.62357 -0.98736,-0.62358 h -0.0679 -0.0679 l -1.5996,-1.00056 -1.59959,-1.00057 0.24197,-0.40963 0.24198,-0.40963 0.26532,-0.35175 0.26532,-0.35174 3.87604,2.32959 3.87604,2.32959 0.005,0.10347 0.005,0.10347 -0.4906,0.78921 -0.49059,0.7892 -3.52079,-0.10068 -3.52079,-0.10069 10e-4,0.11625 0.001,0.11624 2.49655,1.51002 2.49654,1.51002 v 0.14178 0.14179 l -0.38481,0.65663 -0.38482,0.65664 h -0.11143 -0.11144 l -1.43375,-0.88895 z m 6.42622,-11.71101 -1.50231,-2.760723 -0.0612,-0.153206 -0.0612,-0.153207 -0.74374,-1.343359 -0.74375,-1.343358 0.42654,-0.462985 0.42654,-0.462985 0.32599,-0.343004 0.326,-0.343004 0.73361,0.279365 0.73362,0.279365 1.81648,0.7544 1.81647,0.7544 1.87713,0.772574 1.87713,0.772573 0.0813,0.08128 0.0813,0.08128 -0.67174,0.713031 -0.67174,0.713031 -0.0236,0.05162 -0.0236,0.05162 -0.8513,-0.389394 -0.8513,-0.389395 h -0.14689 -0.14689 l -0.006,0.11353 -0.006,0.113529 -0.97728,1.05961 -0.97729,1.059612 -4.5e-4,0.13463 -4.6e-4,0.13463 0.45816,0.7446 0.45815,0.7446 -0.26894,0.33291 -0.26893,0.33291 -0.36789,0.41512 -0.36789,0.41512 h -0.0977 -0.0977 l -1.5023,-2.76072 z m 1.78693,-2.633158 0.64646,-0.701318 v -0.154113 -0.154114 l -1.4343,-0.649429 -1.4343,-0.649427 -0.0558,0.05578 -0.0558,0.05578 0.8089,1.445776 0.80889,1.445777 0.0347,0.0033 0.0347,0.0033 0.64646,-0.701318 z m 104.001872,3.896308 -0.63775,-0.74056 1.31893,-1.09228 1.31893,-1.092282 0.6419,-1.686506 0.64189,-1.686506 0.32611,-0.904377 0.32611,-0.904376 0.20665,-0.494583 0.20665,-0.494584 0.5596,0.642097 0.5596,0.642095 0.20045,0.244176 0.20046,0.244178 -0.44039,0.966805 -0.44038,0.966807 -0.41895,0.949226 -0.41896,0.949226 0.0599,0.04652 0.0599,0.04653 1.96785,-0.542016 1.96785,-0.542015 0.73219,0.832934 0.73218,0.832933 -0.42944,0.105718 -0.42944,0.105717 -2.11922,0.456653 -2.11922,0.45666 -0.60549,0.10052 -0.60549,0.10052 -1.32045,1.11573 -1.32044,1.11574 -0.0419,-7e-5 -0.0419,-7e-5 z m -3.883991,-4.31067 -0.73743,-0.649928 0.70407,-3.166421 0.704061,-3.16642 0.0828,-0.378432 0.0828,-0.378432 -0.478411,0.454119 -0.47842,0.454118 -1.60179,1.778632 -1.60178,1.778631 -0.16411,-0.005 -0.1641,-0.005 -0.57447,-0.574037 -0.57448,-0.574034 0.49879,-0.542038 0.49879,-0.542036 0.75686,-0.815321 0.75686,-0.815322 1.81524,-1.999322 1.815241,-1.99932 h 0.0811 0.0811 l 0.74068,0.651764 0.74067,0.651764 -0.70998,3.094714 -0.70999,3.094716 -0.0756,0.340589 -0.0756,0.340589 0.11642,-0.01093 0.11641,-0.01093 1.95412,-2.177114 1.95412,-2.177114 0.39216,0.279545 0.39216,0.279544 0.28044,0.310324 0.28043,0.310323 -0.0534,0.143982 -0.0534,0.14398 -1.7541,1.870469 -1.7541,1.870469 -1.25587,1.400199 -1.25586,1.400199 -0.0175,-0.0058 -0.0175,-0.0058 -0.737421,-0.64993 z m -94.705131,-2.114626 -0.8306,-0.959713 -1.89216,-2.179682 -1.89216,-2.179681 -0.2861,-0.287686 -0.28609,-0.287686 0.70199,-0.672729 0.70198,-0.672729 0.12389,0.05059 0.12387,0.05058 2.30063,2.679268 2.30063,2.679269 0.11856,0.07327 0.11856,0.07327 1.63447,-1.428031 1.63447,-1.42803 h 0.12425 0.12425 l 0.47651,0.601631 0.4765,0.601633 -0.57711,0.49582 -0.57711,0.495822 -0.75707,0.687015 -0.75706,0.687015 -1.07987,0.940244 -1.07987,0.940243 h -0.0574 -0.0574 z m 87.920481,-3.705261 -0.71029,-0.55739 -0.009,-0.08057 -0.009,-0.08057 1.55157,-2.054024 1.55157,-2.054024 1.11651,-1.46335 1.11651,-1.463352 0.1293,-0.07991 0.1293,-0.07991 0.67829,0.499031 0.67829,0.499032 0.006,0.151373 0.006,0.151373 -0.6505,0.832551 -0.6505,0.832551 -2.0915,2.762555 -2.09151,2.762555 -0.0205,-0.01026 -0.0204,-0.01026 -0.71029,-0.557388 z m -83.831461,-3.846269 -2.49765,-3.651991 -0.0464,-0.187194 -0.0464,-0.187192 0.67917,-0.467282 0.67917,-0.467284 h 0.1496 0.14959 l 0.34992,0.567649 0.34991,0.567648 1.71614,2.462455 1.71614,2.462455 0.17904,-0.10984 0.17905,-0.109841 1.51372,-1.073956 1.51373,-1.073954 0.167,-0.100724 0.167,-0.100722 0.49236,0.685591 0.49235,0.68559 -0.0539,0.05342 -0.0539,0.05342 -2.62357,1.829537 -2.62358,1.829536 -0.0255,-0.0077 -0.0254,-0.0077 z m 79.261101,0.619927 -0.71567,-0.474045 0.0684,-0.178219 0.0684,-0.178218 1.42121,-2.185977 1.4212,-2.185979 0.50628,-0.800462 0.50627,-0.800463 -0.0573,-0.05107 -0.0573,-0.05107 -1.0952,-0.6976 -1.0952,-0.6976 0.41292,-0.683615 0.41292,-0.683615 h 0.11604 0.11603 l 1.24742,0.810003 1.24743,0.810003 1.56229,1.015338 1.5623,1.015336 0.21634,0.08302 0.21633,0.08302 v 0.146066 0.146066 l -0.39068,0.66664 -0.39067,0.66664 -1.14145,-0.770237 -1.14144,-0.770236 -0.0951,0.142729 -0.0951,0.142728 -1.89216,2.976057 -1.89216,2.976056 -0.16326,0.0014 -0.16327,0.0014 -0.71568,-0.474045 z m -71.696111,-3.121111 -1.1049,-1.930004 -1.11083,-1.903692 -1.11082,-1.903692 1.5e-4,-0.139842 1.5e-4,-0.139841 0.7705,-0.43276 0.77051,-0.432759 0.1265,0.130013 0.12649,0.130014 2.14832,3.708636 2.14831,3.708635 0.0739,0.189216 0.0739,0.189216 h -0.1756 -0.1756 l -0.55691,0.378432 -0.55692,0.378433 h -0.17109 -0.1711 l -1.1049,-1.930005 z m 3.56936,0.22706 -0.0577,-0.189216 -0.17546,-2.119221 -0.17547,-2.11922 -0.21616,-2.253957 -0.21617,-2.253957 v -0.249049 -0.249049 l 1.01689,-0.501452 1.0169,-0.501451 0.4425,0.506805 0.4425,0.506805 2.93042,2.973278 2.930421,2.973279 v 0.06419 0.06419 l -0.91119,0.435509 -0.91119,0.43551 -0.738471,-0.727368 -0.73847,-0.727366 -1.47125,0.696936 -1.47124,0.696936 0.10515,0.981845 0.10514,0.981845 -0.86308,0.381698 -0.86309,0.381697 h -0.0616 -0.0616 z m 2.50812,-4.751075 0.88933,-0.399104 v -0.104417 -0.104417 l -1.07929,-1.167133 -1.07929,-1.167133 -0.0641,0.06413 -0.0641,0.06413 0.18675,1.606524 0.18674,1.606525 h 0.0673 0.0674 z m 58.108271,3.404136 -0.98392,-0.412844 0.0536,-0.350013 0.0536,-0.350013 0.36268,-0.964103 0.36269,-0.964103 v -0.350102 -0.350103 l -0.41628,-0.285577 -0.41627,-0.285577 -0.81489,-0.330222 -0.8149,-0.330222 h -0.17613 -0.17613 l -0.65531,1.595671 -0.65531,1.595671 -0.0944,-0.04678 -0.0945,-0.04678 -0.7947,-0.297755 -0.79471,-0.297755 v -0.081 -0.081 l 1.74333,-4.149678 1.74333,-4.1496786 0.0454,-0.04544 0.0454,-0.04544 1.65497,0.695915 1.65496,0.695915 0.6632,0.263525 0.6632,0.2635256 0.52558,0.419364 0.52557,0.419364 0.21143,0.506017 0.21142,0.506016 v 0.539529 0.539529 l -0.20451,0.489465 -0.20451,0.489465 -0.55762,0.489597 -0.55762,0.489597 h -0.31368 -0.31367 l 0.11763,0.264902 0.11763,0.264903 0.0615,0.605491 0.0615,0.605492 -0.33072,0.756864 -0.33073,0.756864 -0.0971,0.687171 -0.0971,0.687171 z m 1.26141,-5.853205 0.24873,-0.274836 0.09,-0.449842 0.09,-0.449842 -0.27738,-0.336037 -0.27739,-0.336036 -1.25371,-0.525707 -1.25371,-0.525706 -0.14196,0.373361 -0.14195,0.373362 -0.30728,0.636 -0.30728,0.635999 v 0.106505 0.106505 l 0.64333,0.266032 0.64334,0.266033 0.5298,0.197878 0.52981,0.197877 0.4685,0.0066 0.4685,0.0066 0.24872,-0.274835 z m -53.5346,2.421114 -0.36997,-1.162356 -0.40842,-1.362355 -0.40841,-1.362356 -0.13377,-0.454119 -0.13377,-0.454119 -0.45063,-1.4071406 -0.450641,-1.407141 0.341121,-0.129693 0.34112,-0.129694 0.63636,-0.190657 0.63636,-0.190657 0.40708,0.365136 0.40708,0.365136 1.29391,1.220933 1.2939,1.2209336 0.84718,0.784757 0.84718,0.784757 h 0.0802 0.0802 l -0.49745,-1.627259 -0.49745,-1.6272576 -0.38716,-1.20832 -0.38716,-1.208319 0.10862,-0.09896 0.10862,-0.09896 0.77419,-0.221699 0.77419,-0.221698 0.25931,0.8478 0.25932,0.847801 0.58796,1.892161 0.58797,1.8921606 0.45991,1.477696 0.45991,1.477695 v 0.205302 0.205302 l -0.91541,0.256851 -0.91541,0.256851 -0.86322,-0.818846 -0.86322,-0.818845 -1.21099,-1.137033 -1.21098,-1.137033 -0.56765,-0.491613 -0.56765,-0.491613 0.003,0.05353 0.003,0.05352 0.88524,2.876084 0.88523,2.876085 -0.0937,0.09979 -0.0937,0.09979 -0.78587,0.230019 -0.78586,0.230018 -0.36998,-1.162356 z m 40.49271,-0.490881 -0.80596,-0.282252 -0.49751,-0.30748 -0.49752,-0.307481 -0.39764,-0.573794 -0.39764,-0.573793 -0.24849,-0.729286 -0.24849,-0.729286 0.0817,-0.901105 0.0817,-0.901105 0.34206,-0.9689276 0.34206,-0.968928 0.54252,-0.717803 0.54251,-0.717804 0.81138,-0.423871 0.81139,-0.423872 0.85311,0.0016 0.8531,0.0016 0.70351,0.213513 0.70351,0.213512 0.43494,0.224912 0.43493,0.224913 0.43563,0.430331 0.43562,0.43033 0.37584,0.813937 0.37583,0.813936 -0.0756,1.3254836 -0.0756,1.325484 -0.49861,1.081762 -0.49862,1.081762 -0.57196,0.516733 -0.57197,0.516733 -0.501,0.263092 -0.501,0.263091 -0.98393,0.03312 -0.98392,0.03312 -0.80595,-0.282252 z m 2.48691,-1.791743 0.46998,-0.286586 0.33944,-0.549225 0.33944,-0.549225 0.21055,-0.790881 0.21055,-0.790882 0.002,-0.549162 0.002,-0.5491616 -0.22531,-0.539259 -0.22532,-0.539258 -0.52777,-0.402548 -0.52776,-0.402548 -0.74064,-0.0096 -0.74064,-0.0096 -0.52368,0.323656 -0.52369,0.323656 -0.43145,0.79271 -0.43144,0.792709 -0.0669,1.1557476 -0.0669,1.155749 0.26569,0.559912 0.2657,0.559911 0.54712,0.28914 0.54711,0.28914 0.68118,0.0061 0.68118,0.0061 0.46998,-0.286586 z m -32.71859,0.232183 -0.76304,-0.355322 -0.43429,-0.513593 -0.43428,-0.513593 -0.38572,-0.83255 -0.38572,-0.832551 -0.0612,-1.4600386 -0.0612,-1.460038 0.17637,-0.534392 0.17636,-0.534392 0.51928,-0.680081 0.51928,-0.680081 0.8538,-0.417722 0.85379,-0.417721 1.1544,-0.0045 1.1544,-0.0045 0.56119,0.272643 0.56119,0.272643 0.40686,0.402093 0.40686,0.402093 0.28021,0.454118 0.28021,0.454119 6e-4,0.179015 6.1e-4,0.179016 -0.2649,0.07727 -0.26491,0.07726 -0.68682,0.09667 -0.68683,0.09667 -0.21606,-0.403706 -0.21605,-0.403706 -0.41412,-0.214145 -0.41419,-0.214146 h -0.51473 -0.51473 l -0.47264,0.164762 -0.47263,0.164761 -0.34467,0.55426 -0.34466,0.554259 0.0148,1.28667 0.0148,1.2866686 0.34753,0.681178 0.34753,0.681178 0.39455,0.340404 0.39455,0.340404 0.85878,1.82e-4 0.85878,1.81e-4 0.46058,-0.387557 0.46059,-0.387557 0.0984,-0.524782 0.0985,-0.524782 0.24728,-0.127923 0.24729,-0.127922 0.74161,-0.107697 0.7416,-0.107696 -0.0902,0.761387 -0.0902,0.761388 -0.23798,0.460214 -0.23799,0.460214 -0.46042,0.524389 -0.46042,0.524389 -0.82909,0.310205 -0.82911,0.310211 -0.9404,-0.0015 -0.9404,-0.0015 -0.76305,-0.355322 z m 19.76035,-0.524931 -0.37843,-0.05066 -0.11622,-0.110973 -0.11623,-0.110972 0.38322,-2.790138 0.38321,-2.7901376 0.22675,-1.654271 0.22676,-1.654271 0.0562,-0.05619 0.0562,-0.05619 0.96379,0.150923 0.96379,0.150923 2.0793,0.262647 2.07929,0.262648 0.16182,0.100009 0.16182,0.100009 -0.1019,0.768191 -0.10191,0.768191 -0.4741,-0.06239 -0.47411,-0.06239 -1.63184,-0.227943 -1.63184,-0.227944 h -0.20293 -0.20292 l -0.10456,0.924149 -0.10455,0.92415 0.0657,0.06568 0.0657,0.06568 1.87364,0.272831 1.87364,0.272831 -0.0256,0.718193 -0.0256,0.718192 -0.0772,0.0772 -0.0772,0.0772 -1.63796,-0.1744414 -1.63797,-0.17448 -0.31974,-0.07828 -0.31974,-0.07828 -0.1884,1.7060194 -0.1884,1.706057 -0.0752,0.195957 -0.0752,0.195957 -0.47627,-0.03652 -0.47628,-0.03652 z m -12.15697,-0.133911 -0.0707,-0.118174 -0.0933,-3.2545166 -0.0933,-3.254517 -0.0321,-1.286482 -0.0321,-1.286483 1.0547,-0.02424 1.05469,-0.02424 2.30843,-0.09558 2.30844,-0.09558 v 0.815654 0.815653 l -1.61296,0.09869 -1.61297,0.09869 h -0.73806 -0.73807 l -0.0783,0.20405 -0.0783,0.204049 0.12197,0.727496 0.12197,0.727496 2.02183,-0.02905 2.02184,-0.02905 0.15507,-0.0321 0.15507,-0.0321 0.0176,0.808745 0.0176,0.808745 -0.0888,0.05485 -0.0887,0.05485 -2.06954,0.02213 -2.06952,0.02213 -0.08,0.129494 -0.08,0.129494 0.1034,1.0092766 0.1034,1.009277 2.51267,-0.05665 2.51266,-0.05665 0.0449,0.853592 0.0449,0.853591 -2.99667,0.0978 -2.99667,0.0978 -0.48016,0.07502 -0.48015,0.07502 z"
         id="path1312" /></g></g></svg>
