<?xml version="1.0" encoding="UTF-8" standalone="no"?>
<svg
   width="1280"
   height="960"
   viewBox="0 0 338.66668 253.99999"
   version="1.1"
   id="svg8"
   inkscape:version="1.2.1 (9c6d41e4, 2022-07-14)"
   sodipodi:docname="newsletter-logo.svg"
   inkscape:export-filename="newsletter-logo.png"
   inkscape:export-xdpi="96"
   inkscape:export-ydpi="96"
   xml:space="preserve"
   xmlns:inkscape="http://www.inkscape.org/namespaces/inkscape"
   xmlns:sodipodi="http://sodipodi.sourceforge.net/DTD/sodipodi-0.dtd"
   xmlns="http://www.w3.org/2000/svg"
   xmlns:svg="http://www.w3.org/2000/svg"
   xmlns:rdf="http://www.w3.org/1999/02/22-rdf-syntax-ns#"
   xmlns:cc="http://creativecommons.org/ns#"
   xmlns:dc="http://purl.org/dc/elements/1.1/"><defs
     id="defs2" /><sodipodi:namedview
     id="base"
     pagecolor="#8c8c8c"
     bordercolor="#666666"
     borderopacity="1.0"
     inkscape:pageopacity="0"
     inkscape:pageshadow="2"
     inkscape:zoom="0.41039191"
     inkscape:cx="671.30952"
     inkscape:cy="671.30952"
     inkscape:document-units="mm"
     inkscape:current-layer="layer3"
     inkscape:document-rotation="0"
     showgrid="false"
     inkscape:window-width="1512"
     inkscape:window-height="917"
     inkscape:window-x="84"
     inkscape:window-y="52"
     inkscape:window-maximized="0"
     units="px"
     inkscape:snap-global="false"
     inkscape:showpageshadow="0"
     inkscape:pagecheckerboard="0"
     inkscape:deskcolor="#8c8c8c" /><metadata
     id="metadata5"><rdf:RDF><cc:Work
         rdf:about=""><dc:format>image/svg+xml</dc:format><dc:type
           rdf:resource="http://purl.org/dc/dcmitype/StillImage" /></cc:Work></rdf:RDF></metadata><g
     inkscape:groupmode="layer"
     id="layer2"
     inkscape:label="background"><rect
       style="fill:#6d6d6d;fill-opacity:1;stroke:#ffffff;stroke-width:0"
       id="rect833"
       width="338.66666"
       height="254"
       x="5e-07"
       y="5e-07"
       rx="0"
       ry="0" /></g><g
     inkscape:label="graphics"
     inkscape:groupmode="layer"
     id="layer1"><path
       style="fill:none;stroke:#050505;stroke-width:9.29767;stroke-dasharray:none"
       d="m 295.26428,237.9494 c -0.96278,0.69275 -1.66252,1.3897 -5.12115,1.39667 -2.49027,0.006 -7.40703,0 -10.24228,0 h -25.14018 -91.71505 -26.07128 c -5.15536,0 -10.22878,0.16628 -14.89788,-2.01259 -2.81323,-1.31289 -4.82439,-2.79242 -6.97653,-4.97265 -1.88626,-1.91065 -3.27958,-3.69047 -4.5101,-6.05039 -1.5207,-2.91626 -1.99852,-6.51828 -2.01419,-9.77673 -0.038,-7.86143 -3.7e-4,-15.86857 -3.7e-4,-23.74349 V 70.813872 37.293649 c 0,-2.166655 -0.003,-5.446376 0,-7.448933 0.002,-1.275211 -0.29588,-2.416059 0.4785,-3.576458 1.00923,-1.512422 3.22949,-1.078471 4.64263,-1.079122 3.85525,-0.0018 9.47209,0 13.5012,0 h 59.5915 74.95495 21.88124 c 1.8306,0 3.45586,-0.540564 4.88188,0.478503 1.39992,1.00024 1.15318,2.935158 1.16854,4.177077 0.026,2.115364 0.002,7.032684 0.002,9.31118 0,2.608471 0.0702,3.739783 0.0702,6.052256 0,2.13347 -0.0702,3.394393 -0.0702,5.586704 v 13.96676 0.153612 132.530592 c 0,10.1976 -2.55685,25.13923 2.53682,33.98578 2.39576,4.16116 0.96232,5.95962 4.92095,7.2655 1.68487,0.55587 4.373,0.64901 6.97453,0.64901 8.29022,0 16.50593,-4.58855 18.00596,-13.50122 0.77749,-4.62065 0.61639,-10.1394 0.61639,-14.89787 V 182.54796 91.298476 58.243806 c 0,-2.403866 0.0483,-6.164782 -0.007,-8.380057 -0.0335,-1.356908 0.0679,-2.399853 -0.66062,-3.576457 -0.92878,-1.500685 -2.93162,-1.07694 -3.98798,-1.079123 -1.63037,-0.0035 -4.20817,0 -6.05225,0 H 294.7994 290.14383 M 126.41449,43.978303 c 1.27325,-0.849636 2.50485,-0.478134 4.04202,-0.478591 3.34198,-0.0014 8.14999,0 11.63898,0 h 44.22806 10.24228 c 1.44372,0 3.55037,-0.495819 4.72171,0.746296 1.08569,1.151793 0.84685,2.586176 0.86315,3.909284 0.0302,2.42975 0.002,6.668658 0.002,9.31118 v 21.881261 c 0,2.455353 0.54656,5.243109 -1.13316,6.702637 -1.32359,1.150387 -2.85946,0.745364 -4.45354,0.746279 -3.3576,0.0014 -8.13795,0 -11.63897,0 h -44.6934 c -2.95108,0 -6.94501,0.0052 -9.77672,0 -1.57229,-0.0035 -3.1495,0.388289 -4.37466,-0.810997 -1.20088,-1.17553 -0.74593,-3.066633 -0.74648,-4.310137 -10e-4,-2.430208 0,-6.66866 0,-9.311161 V 50.948643 c 0,-2.347347 -0.3873,-5.991726 1.07911,-6.97034 m 99.48154,7.901464 h 46.55588 M 225.8965,68.639879 h 44.69363 m -44.22806,16.294558 44.22806,0.465535 m -144.78873,65.644668 54.93592,0.46556 91.24948,-0.46556 M 126.2664,166.25357 H 271.98625 M 127.19753,183.01368 H 270.58958 M 127.19753,199.77379 H 270.58958 M 127.19753,216.5339 h 145.25429"
       id="path3599"
       sodipodi:nodetypes="ccsccsssscscscsssccssssssccssssssccsccssccccscsccssccsscsssscccccccccccccccccc" /><g
       id="g4408"
       transform="translate(1.5875)"><rect
         style="fill:#6d6d6d;fill-opacity:1;stroke-width:0.0242061;stroke-dasharray:none"
         id="rect588"
         width="44.02565"
         height="38.742565"
         x="73.173981"
         y="103.10902"
         transform="matrix(0.99999999,-1.6813773e-4,5.1583046e-4,0.99999987,0,0)" /><rect
         style="fill:#6d6d6d;fill-opacity:1;stroke-width:0.0182901;stroke-dasharray:none"
         id="rect1378"
         width="25.135418"
         height="38.742561"
         x="274.28012"
         y="103.17748"
         transform="rotate(-0.01687359)" /></g></g><g
     inkscape:groupmode="layer"
     id="layer3"
     inkscape:label="text"><text
       xml:space="preserve"
       style="font-style:normal;font-variant:normal;font-weight:bold;font-stretch:normal;font-size:43.96px;line-height:1.25;font-family:'Segoe UI';-inkscape-font-specification:'Segoe UI, Bold';font-variant-ligatures:normal;font-variant-caps:normal;font-variant-numeric:normal;font-variant-east-asian:normal;fill:#ffffff;fill-opacity:1;stroke:none;stroke-width:1.09901"
       x="19.829029"
       y="136.41226"
       id="text837"><tspan
         sodipodi:role="line"
         id="tspan835"
         x="19.829029"
         y="136.41226"
         style="font-style:normal;font-variant:normal;font-weight:bold;font-stretch:normal;font-size:43.96px;font-family:'Segoe UI';-inkscape-font-specification:'Segoe UI, Bold';font-variant-ligatures:normal;font-variant-caps:normal;font-variant-numeric:normal;font-variant-east-asian:normal;fill:#ffffff;fill-opacity:1;stroke-width:1.09901">Newsletter</tspan></text></g></svg>
