<?xml version="1.0" encoding="UTF-8" standalone="no"?>
<svg
   xmlns:dc="http://purl.org/dc/elements/1.1/"
   xmlns:cc="http://creativecommons.org/ns#"
   xmlns:rdf="http://www.w3.org/1999/02/22-rdf-syntax-ns#"
   xmlns:svg="http://www.w3.org/2000/svg"
   xmlns="http://www.w3.org/2000/svg"
   xmlns:sodipodi="http://sodipodi.sourceforge.net/DTD/sodipodi-0.dtd"
   xmlns:inkscape="http://www.inkscape.org/namespaces/inkscape"
   width="1280"
   height="960"
   viewBox="0 0 338.66668 253.99999"
   version="1.1"
   id="svg8"
   inkscape:version="1.0.2-2 (e86c870879, 2021-01-15)"
   sodipodi:docname="volunteer-logo.svg"
   inkscape:export-filename="C:\Users\chalmers\projects\gatsby-starter-netlify-cms\static\img\volunteer-logo.png"
   inkscape:export-xdpi="96"
   inkscape:export-ydpi="96">
  <defs
     id="defs2" />
  <sodipodi:namedview
     id="base"
     pagecolor="#8c8c8c"
     bordercolor="#666666"
     borderopacity="1.0"
     inkscape:pageopacity="0"
     inkscape:pageshadow="2"
     inkscape:zoom="0.35"
     inkscape:cx="1040.3819"
     inkscape:cy="417.02961"
     inkscape:document-units="mm"
     inkscape:current-layer="layer3"
     inkscape:document-rotation="0"
     showgrid="false"
     inkscape:window-width="1920"
     inkscape:window-height="1027"
     inkscape:window-x="1912"
     inkscape:window-y="22"
     inkscape:window-maximized="1"
     units="px"
     inkscape:snap-global="false" />
  <metadata
     id="metadata5">
    <rdf:RDF>
      <cc:Work
         rdf:about="">
        <dc:format>image/svg+xml</dc:format>
        <dc:type
           rdf:resource="http://purl.org/dc/dcmitype/StillImage" />
        <dc:title></dc:title>
      </cc:Work>
    </rdf:RDF>
  </metadata>
  <g
     inkscape:groupmode="layer"
     id="layer2"
     inkscape:label="background" />
  <g
     inkscape:label="graphics"
     inkscape:groupmode="layer"
     id="layer1" />
  <g
     inkscape:groupmode="layer"
     id="layer3"
     inkscape:label="text">
    <g
       id="g997">
      <rect
         style="fill:#6d6d6d;fill-opacity:1;stroke:#ffffff;stroke-width:0"
         id="rect833"
         width="338.66666"
         height="254"
         x="1.4006793e-06"
         y="1.4006793e-06"
         rx="0"
         ry="0" />
      <path
         id="path857"
         style="fill:#000000;fill-opacity:1;stroke:none;stroke-width:2.69754;stroke-opacity:1"
         d="m 587.20312,41.191406 c -11.4924,-0.06013 -25.28213,10.87941 -27.74218,22.007813 -0.85028,3.845945 3.63335,24.097589 9.96289,45.003901 6.32961,20.90633 14.79986,53.04382 18.82226,71.41602 10.76844,49.18471 17.38974,73.51646 25.48829,93.66211 10.06393,25.03521 12.28467,34.42713 8.8789,37.55078 -4.36804,4.00622 -9.44709,-2.89189 -29.63672,-40.24805 -10.00036,-18.50346 -34.00005,-57.29339 -53.33203,-86.19921 -19.33183,-28.9059 -42.31189,-64.8037 -51.06641,-79.77344 -8.75451,-14.969743 -18.44265,-29.965022 -21.53124,-33.324221 -8.80268,-9.567465 -23.49285,-12.447086 -35.03126,-6.857421 -21.83414,10.577351 -26.82432,29.893485 -14.11914,54.646482 3.64184,7.09514 16.87537,33.14433 29.40821,57.88672 23.03233,45.47028 63.55974,115.17132 79.8125,137.26758 18.43003,25.05607 27.57253,41.18199 25.59765,45.14648 -1.20997,2.4289 -5.819,3.49716 -11.94531,2.76953 -9.22567,-1.09568 -10.84818,-2.33326 -21.60547,-16.48437 -6.39692,-8.41524 -17.9325,-24.7394 -25.63476,-36.27539 -7.70226,-11.53587 -20.33404,-27.95214 -28.07032,-36.48047 -7.73775,-8.52702 -27.98481,-34.79633 -44.99609,-58.37305 -33.80183,-46.8469 -44.56979,-57.32652 -57.19727,-55.66015 -12.27529,1.61997 -20.52848,11.83545 -20.7207,25.65039 -0.218,15.69533 6.28718,29.36388 41.45703,87.10156 34.8872,57.27342 43.32773,69.85866 75.3711,112.39844 22.04787,29.27006 27.21131,38.01751 42.18164,71.45117 18.55661,41.44335 22.17153,58.38305 17.01172,79.73047 -5.4669,22.61756 -21.99344,31.76717 -49.67969,27.5039 -7.1297,-1.0978 -24.8939,-5.05378 -39.47656,-8.79101 -28.00233,-7.17649 -65.79232,-9.59548 -86.82813,-5.55664 -19.26166,3.69823 -39.98379,14.23969 -47.37305,24.09961 -8.3985,11.20671 -8.54829,28.47468 -0.32617,37.43945 5.06102,5.51819 11.03905,7.14711 33.69141,9.17773 15.14697,1.35799 36.68073,5.75239 47.85156,9.76368 11.17084,4.01129 26.17594,7.8636 33.3457,8.56054 20.65146,2.00769 41.48263,8.96327 75.30664,25.14649 17.29191,8.27319 41.24242,17.4852 53.22461,20.47265 11.9822,2.98746 33.8216,10.04198 48.53125,15.67579 14.70981,5.6338 38.4987,12.42922 52.86329,15.09961 14.36447,2.67053 38.3952,9.8655 53.40234,15.99023 0,0 18.85647,6.09112 27.28516,11.13672 34.72724,20.78812 66.04213,55.21918 93.54492,77.41211 25.20087,20.29422 74.99708,75.14679 131.25195,144.23828 H 1157.334 l 122.8129,-2.22816 0.043,-61.86804 c 0,0 -93.2603,-61.5967 -155.8678,-106.96044 -39.2696,-28.45096 -80.8235,-63.12484 -132.77347,-110.78906 -19.75132,-18.12193 -48.39415,-43.51345 -63.64844,-56.42579 -40.33931,-34.14599 -46.12658,-52.33411 -59.82227,-87.50976 -17.86934,-45.89582 -32.0734,-68.43182 -45.9121,-124.69727 l -10.40821,-32.85351 c -15.19702,-47.96426 -16.77723,-60.81347 -12.25586,-99.71485 5.91307,-50.87486 9.3195,-165.93151 5.14063,-173.64843 -4.52527,-8.356407 -16.89606,-14.10034 -24.7207,-11.478519 -9.10957,3.052354 -14.67295,13.975029 -15.81641,31.054689 -0.55869,8.34532 -2.87733,26.60008 -5.15235,40.56445 -2.27512,13.96446 -5.6012,37.50534 -7.39062,52.3125 -5.91885,48.97811 -17.32207,88.94628 -28.23047,98.95117 -1.50274,1.37821 -6.16104,2.35694 -10.35351,2.17578 -13.43279,-0.58039 -19.60768,-11.01536 -29.86524,-50.4746 C 656.59098,166.95779 623.20801,61.945046 614.16016,52.080078 608.08033,45.451191 597.66701,41.245699 587.20312,41.191406 Z"
         transform="scale(0.26458333)"
         sodipodi:nodetypes="cssscsscscssccssssccsccscsssssscsccsssccccccccsscccsssssssscsc" />
      <text
         xml:space="preserve"
         style="font-style:normal;font-variant:normal;font-weight:bold;font-stretch:normal;font-size:66.9424px;line-height:1.25;font-family:'Segoe UI';-inkscape-font-specification:'Segoe UI, Bold';font-variant-ligatures:normal;font-variant-caps:normal;font-variant-numeric:normal;font-variant-east-asian:normal;fill:#ffffff;fill-opacity:1;stroke:none;stroke-width:1.67357"
         x="24.436668"
         y="140.82849"
         id="text837"><tspan
           sodipodi:role="line"
           id="tspan835"
           x="24.436668"
           y="140.82849"
           style="font-style:normal;font-variant:normal;font-weight:bold;font-stretch:normal;font-size:66.9424px;font-family:'Segoe UI';-inkscape-font-specification:'Segoe UI, Bold';font-variant-ligatures:normal;font-variant-caps:normal;font-variant-numeric:normal;font-variant-east-asian:normal;fill:#ffffff;fill-opacity:1;stroke-width:1.67357">Volunteer</tspan></text>
    </g>
  </g>
</svg>
